  0
SECTION
  2
BLOCKS
  0
ENDSEC
  0
SECTION
  2
ENTITIES
  0
LINE
  8
0
 10
-325
 20
212.473
 11
-93.0889
 21
5
  0
LINE
  8
0
 10
-93.0889
 20
5
 11
-92.4375
 21
5
  0
LINE
  8
0
 10
-92.4375
 20
5
 11
-92.4375
 21
4.99067
  0
LINE
  8
0
 10
-92.4375
 20
4.99067
 11
-92.4182
 21
4.99694
  0
LINE
  8
0
 10
-92.4182
 20
4.99694
 11
-87.6902
 21
4.99694
  0
LINE
  8
0
 10
-87.6902
 20
4.99694
 11
-87.6471
 21
4.9375
  0
LINE
  8
0
 10
-87.6471
 20
4.9375
 11
-87.6471
 21
0.131563
  0
LINE
  8
0
 10
-87.6471
 20
0.131563
 11
-87.5
 21
0
  0
LINE
  8
0
 10
-87.5
 20
0
 11
-82.7822
 21
0
  0
LINE
  8
0
 10
-82.7822
 20
0
 11
-82.7822
 21
4.97424
  0
LINE
  8
0
 10
-82.7822
 20
4.97424
 11
-82.7123
 21
4.99694
  0
LINE
  8
0
 10
-82.7123
 20
4.99694
 11
-77.9844
 21
4.99694
  0
LINE
  8
0
 10
-77.9844
 20
4.99694
 11
-77.9412
 21
4.9375
  0
LINE
  8
0
 10
-77.9412
 20
4.9375
 11
-77.9412
 21
0
  0
LINE
  8
0
 10
-77.9412
 20
0
 11
-73.0763
 21
0
  0
LINE
  8
0
 10
-73.0763
 20
0
 11
-73.0763
 21
4.97424
  0
LINE
  8
0
 10
-73.0763
 20
4.97424
 11
-73.0064
 21
4.99694
  0
LINE
  8
0
 10
-73.0064
 20
4.99694
 11
-68.2785
 21
4.99694
  0
LINE
  8
0
 10
-68.2785
 20
4.99694
 11
-68.2353
 21
4.9375
  0
LINE
  8
0
 10
-68.2353
 20
4.9375
 11
-68.2353
 21
0
  0
LINE
  8
0
 10
-68.2353
 20
0
 11
-63.3704
 21
0
  0
LINE
  8
0
 10
-63.3704
 20
0
 11
-63.3704
 21
4.97424
  0
LINE
  8
0
 10
-63.3704
 20
4.97424
 11
-63.3005
 21
4.99694
  0
LINE
  8
0
 10
-63.3005
 20
4.99694
 11
-58.5726
 21
4.99694
  0
LINE
  8
0
 10
-58.5726
 20
4.99694
 11
-58.5294
 21
4.9375
  0
LINE
  8
0
 10
-58.5294
 20
4.9375
 11
-58.5294
 21
0
  0
LINE
  8
0
 10
-58.5294
 20
0
 11
-53.6645
 21
0
  0
LINE
  8
0
 10
-53.6645
 20
0
 11
-53.6645
 21
4.97424
  0
LINE
  8
0
 10
-53.6645
 20
4.97424
 11
-53.5947
 21
4.99694
  0
LINE
  8
0
 10
-53.5947
 20
4.99694
 11
-48.8667
 21
4.99694
  0
LINE
  8
0
 10
-48.8667
 20
4.99694
 11
-48.8235
 21
4.9375
  0
LINE
  8
0
 10
-48.8235
 20
4.9375
 11
-48.8235
 21
0
  0
LINE
  8
0
 10
-48.8235
 20
0
 11
-43.9587
 21
0
  0
LINE
  8
0
 10
-43.9587
 20
0
 11
-43.9587
 21
4.97424
  0
LINE
  8
0
 10
-43.9587
 20
4.97424
 11
-43.8888
 21
4.99694
  0
LINE
  8
0
 10
-43.8888
 20
4.99694
 11
-39.1608
 21
4.99694
  0
LINE
  8
0
 10
-39.1608
 20
4.99694
 11
-39.1176
 21
4.9375
  0
LINE
  8
0
 10
-39.1176
 20
4.9375
 11
-39.1176
 21
0
  0
LINE
  8
0
 10
-39.1176
 20
0
 11
-34.2528
 21
0
  0
LINE
  8
0
 10
-34.2528
 20
0
 11
-34.2528
 21
4.97424
  0
LINE
  8
0
 10
-34.2528
 20
4.97424
 11
-34.1829
 21
4.99694
  0
LINE
  8
0
 10
-34.1829
 20
4.99694
 11
-29.455
 21
4.99694
  0
LINE
  8
0
 10
-29.455
 20
4.99694
 11
-29.4118
 21
4.9375
  0
LINE
  8
0
 10
-29.4118
 20
4.9375
 11
-29.4118
 21
0
  0
LINE
  8
0
 10
-29.4118
 20
0
 11
-24.5469
 21
0
  0
LINE
  8
0
 10
-24.5469
 20
0
 11
-24.5469
 21
4.97424
  0
LINE
  8
0
 10
-24.5469
 20
4.97424
 11
-24.477
 21
4.99694
  0
LINE
  8
0
 10
-24.477
 20
4.99694
 11
-19.7491
 21
4.99694
  0
LINE
  8
0
 10
-19.7491
 20
4.99694
 11
-19.7059
 21
4.9375
  0
LINE
  8
0
 10
-19.7059
 20
4.9375
 11
-19.7059
 21
0
  0
LINE
  8
0
 10
-19.7059
 20
0
 11
-14.841
 21
0
  0
LINE
  8
0
 10
-14.841
 20
0
 11
-14.841
 21
4.97424
  0
LINE
  8
0
 10
-14.841
 20
4.97424
 11
-14.7711
 21
4.99694
  0
LINE
  8
0
 10
-14.7711
 20
4.99694
 11
-10.0625
 21
4.99694
  0
LINE
  8
0
 10
-10.0625
 20
4.99694
 11
-10.0625
 21
5
  0
LINE
  8
0
 10
-10.0625
 20
5
 11
-15
 21
5
  0
LINE
  8
0
 10
-15
 20
5
 11
-15
 21
5.0625
  0
LINE
  8
0
 10
-15
 20
5.0625
 11
-14.9907
 21
5.0625
  0
LINE
  8
0
 10
-14.9907
 20
5.0625
 11
-14.9969
 21
5.08181
  0
LINE
  8
0
 10
-14.9969
 20
5.08181
 11
-14.9969
 21
10.0549
  0
LINE
  8
0
 10
-14.9969
 20
10.0549
 11
-14.9375
 21
10.098
  0
LINE
  8
0
 10
-14.9375
 20
10.098
 11
-10
 21
10.098
  0
LINE
  8
0
 10
-10
 20
10.098
 11
-10
 21
15.208
  0
LINE
  8
0
 10
-10
 20
15.208
 11
-14.9742
 21
15.208
  0
LINE
  8
0
 10
-14.9742
 20
15.208
 11
-14.9969
 21
15.2779
  0
LINE
  8
0
 10
-14.9969
 20
15.2779
 11
-14.9969
 21
20.2509
  0
LINE
  8
0
 10
-14.9969
 20
20.2509
 11
-14.9375
 21
20.2941
  0
LINE
  8
0
 10
-14.9375
 20
20.2941
 11
-10
 21
20.2941
  0
LINE
  8
0
 10
-10
 20
20.2941
 11
-10
 21
25.4041
  0
LINE
  8
0
 10
-10
 20
25.4041
 11
-14.9742
 21
25.4041
  0
LINE
  8
0
 10
-14.9742
 20
25.4041
 11
-14.9969
 21
25.474
  0
LINE
  8
0
 10
-14.9969
 20
25.474
 11
-14.9969
 21
30.447
  0
LINE
  8
0
 10
-14.9969
 20
30.447
 11
-14.9375
 21
30.4902
  0
LINE
  8
0
 10
-14.9375
 20
30.4902
 11
-10
 21
30.4902
  0
LINE
  8
0
 10
-10
 20
30.4902
 11
-10
 21
35.6002
  0
LINE
  8
0
 10
-10
 20
35.6002
 11
-14.9742
 21
35.6002
  0
LINE
  8
0
 10
-14.9742
 20
35.6002
 11
-14.9969
 21
35.67
  0
LINE
  8
0
 10
-14.9969
 20
35.67
 11
-14.9969
 21
40.6431
  0
LINE
  8
0
 10
-14.9969
 20
40.6431
 11
-14.9375
 21
40.6863
  0
LINE
  8
0
 10
-14.9375
 20
40.6863
 11
-10
 21
40.6863
  0
LINE
  8
0
 10
-10
 20
40.6863
 11
-10
 21
45.7962
  0
LINE
  8
0
 10
-10
 20
45.7962
 11
-14.9742
 21
45.7962
  0
LINE
  8
0
 10
-14.9742
 20
45.7962
 11
-14.9969
 21
45.8661
  0
LINE
  8
0
 10
-14.9969
 20
45.8661
 11
-14.9969
 21
50.8392
  0
LINE
  8
0
 10
-14.9969
 20
50.8392
 11
-14.9375
 21
50.8824
  0
LINE
  8
0
 10
-14.9375
 20
50.8824
 11
-10
 21
50.8824
  0
LINE
  8
0
 10
-10
 20
50.8824
 11
-10
 21
55.9923
  0
LINE
  8
0
 10
-10
 20
55.9923
 11
-14.9742
 21
55.9923
  0
LINE
  8
0
 10
-14.9742
 20
55.9923
 11
-14.9969
 21
56.0622
  0
LINE
  8
0
 10
-14.9969
 20
56.0622
 11
-14.9969
 21
61.0352
  0
LINE
  8
0
 10
-14.9969
 20
61.0352
 11
-14.9375
 21
61.0784
  0
LINE
  8
0
 10
-14.9375
 20
61.0784
 11
-10
 21
61.0784
  0
LINE
  8
0
 10
-10
 20
61.0784
 11
-10
 21
66.1884
  0
LINE
  8
0
 10
-10
 20
66.1884
 11
-14.9742
 21
66.1884
  0
LINE
  8
0
 10
-14.9742
 20
66.1884
 11
-14.9969
 21
66.2583
  0
LINE
  8
0
 10
-14.9969
 20
66.2583
 11
-14.9969
 21
71.2313
  0
LINE
  8
0
 10
-14.9969
 20
71.2313
 11
-14.9375
 21
71.2745
  0
LINE
  8
0
 10
-14.9375
 20
71.2745
 11
-10
 21
71.2745
  0
LINE
  8
0
 10
-10
 20
71.2745
 11
-10
 21
76.3845
  0
LINE
  8
0
 10
-10
 20
76.3845
 11
-14.9742
 21
76.3845
  0
LINE
  8
0
 10
-14.9742
 20
76.3845
 11
-14.9969
 21
76.4544
  0
LINE
  8
0
 10
-14.9969
 20
76.4544
 11
-14.9969
 21
81.4274
  0
LINE
  8
0
 10
-14.9969
 20
81.4274
 11
-14.9375
 21
81.4706
  0
LINE
  8
0
 10
-14.9375
 20
81.4706
 11
-10
 21
81.4706
  0
LINE
  8
0
 10
-10
 20
81.4706
 11
-10
 21
86.5806
  0
LINE
  8
0
 10
-10
 20
86.5806
 11
-14.9742
 21
86.5806
  0
LINE
  8
0
 10
-14.9742
 20
86.5806
 11
-14.9969
 21
86.6504
  0
LINE
  8
0
 10
-14.9969
 20
86.6504
 11
-14.9969
 21
91.6235
  0
LINE
  8
0
 10
-14.9969
 20
91.6235
 11
-14.9375
 21
91.6667
  0
LINE
  8
0
 10
-14.9375
 20
91.6667
 11
-10
 21
91.6667
  0
LINE
  8
0
 10
-10
 20
91.6667
 11
-10
 21
96.7766
  0
LINE
  8
0
 10
-10
 20
96.7766
 11
-14.9742
 21
96.7766
  0
LINE
  8
0
 10
-14.9742
 20
96.7766
 11
-14.9969
 21
96.8465
  0
LINE
  8
0
 10
-14.9969
 20
96.8465
 11
-14.9969
 21
101.82
  0
LINE
  8
0
 10
-14.9969
 20
101.82
 11
-14.9375
 21
101.863
  0
LINE
  8
0
 10
-14.9375
 20
101.863
 11
-10
 21
101.863
  0
LINE
  8
0
 10
-10
 20
101.863
 11
-10
 21
106.973
  0
LINE
  8
0
 10
-10
 20
106.973
 11
-14.9742
 21
106.973
  0
LINE
  8
0
 10
-14.9742
 20
106.973
 11
-14.9969
 21
107.043
  0
LINE
  8
0
 10
-14.9969
 20
107.043
 11
-14.9969
 21
112.016
  0
LINE
  8
0
 10
-14.9969
 20
112.016
 11
-14.9375
 21
112.059
  0
LINE
  8
0
 10
-14.9375
 20
112.059
 11
-10
 21
112.059
  0
LINE
  8
0
 10
-10
 20
112.059
 11
-10
 21
117.169
  0
LINE
  8
0
 10
-10
 20
117.169
 11
-14.9742
 21
117.169
  0
LINE
  8
0
 10
-14.9742
 20
117.169
 11
-14.9969
 21
117.239
  0
LINE
  8
0
 10
-14.9969
 20
117.239
 11
-14.9969
 21
122.212
  0
LINE
  8
0
 10
-14.9969
 20
122.212
 11
-14.9375
 21
122.255
  0
LINE
  8
0
 10
-14.9375
 20
122.255
 11
-10
 21
122.255
  0
LINE
  8
0
 10
-10
 20
122.255
 11
-10
 21
127.365
  0
LINE
  8
0
 10
-10
 20
127.365
 11
-14.9742
 21
127.365
  0
LINE
  8
0
 10
-14.9742
 20
127.365
 11
-14.9969
 21
127.435
  0
LINE
  8
0
 10
-14.9969
 20
127.435
 11
-14.9969
 21
132.408
  0
LINE
  8
0
 10
-14.9969
 20
132.408
 11
-14.9375
 21
132.451
  0
LINE
  8
0
 10
-14.9375
 20
132.451
 11
-10
 21
132.451
  0
LINE
  8
0
 10
-10
 20
132.451
 11
-10
 21
137.561
  0
LINE
  8
0
 10
-10
 20
137.561
 11
-14.9742
 21
137.561
  0
LINE
  8
0
 10
-14.9742
 20
137.561
 11
-14.9969
 21
137.631
  0
LINE
  8
0
 10
-14.9969
 20
137.631
 11
-14.9969
 21
142.604
  0
LINE
  8
0
 10
-14.9969
 20
142.604
 11
-14.9375
 21
142.647
  0
LINE
  8
0
 10
-14.9375
 20
142.647
 11
-10
 21
142.647
  0
LINE
  8
0
 10
-10
 20
142.647
 11
-10
 21
147.757
  0
LINE
  8
0
 10
-10
 20
147.757
 11
-14.9742
 21
147.757
  0
LINE
  8
0
 10
-14.9742
 20
147.757
 11
-14.9969
 21
147.827
  0
LINE
  8
0
 10
-14.9969
 20
147.827
 11
-14.9969
 21
152.8
  0
LINE
  8
0
 10
-14.9969
 20
152.8
 11
-14.9375
 21
152.843
  0
LINE
  8
0
 10
-14.9375
 20
152.843
 11
-10
 21
152.843
  0
LINE
  8
0
 10
-10
 20
152.843
 11
-10
 21
157.953
  0
LINE
  8
0
 10
-10
 20
157.953
 11
-14.9742
 21
157.953
  0
LINE
  8
0
 10
-14.9742
 20
157.953
 11
-14.9969
 21
158.023
  0
LINE
  8
0
 10
-14.9969
 20
158.023
 11
-14.9969
 21
162.996
  0
LINE
  8
0
 10
-14.9969
 20
162.996
 11
-14.9375
 21
163.039
  0
LINE
  8
0
 10
-14.9375
 20
163.039
 11
-10
 21
163.039
  0
LINE
  8
0
 10
-10
 20
163.039
 11
-10
 21
168.149
  0
LINE
  8
0
 10
-10
 20
168.149
 11
-14.9742
 21
168.149
  0
LINE
  8
0
 10
-14.9742
 20
168.149
 11
-14.9969
 21
168.219
  0
LINE
  8
0
 10
-14.9969
 20
168.219
 11
-14.9969
 21
173.192
  0
LINE
  8
0
 10
-14.9969
 20
173.192
 11
-14.9375
 21
173.235
  0
LINE
  8
0
 10
-14.9375
 20
173.235
 11
-10
 21
173.235
  0
LINE
  8
0
 10
-10
 20
173.235
 11
-10
 21
178.345
  0
LINE
  8
0
 10
-10
 20
178.345
 11
-14.9742
 21
178.345
  0
LINE
  8
0
 10
-14.9742
 20
178.345
 11
-14.9969
 21
178.415
  0
LINE
  8
0
 10
-14.9969
 20
178.415
 11
-14.9969
 21
183.388
  0
LINE
  8
0
 10
-14.9969
 20
183.388
 11
-14.9375
 21
183.431
  0
LINE
  8
0
 10
-14.9375
 20
183.431
 11
-10
 21
183.431
  0
LINE
  8
0
 10
-10
 20
183.431
 11
-10
 21
188.541
  0
LINE
  8
0
 10
-10
 20
188.541
 11
-14.9742
 21
188.541
  0
LINE
  8
0
 10
-14.9742
 20
188.541
 11
-14.9969
 21
188.611
  0
LINE
  8
0
 10
-14.9969
 20
188.611
 11
-14.9969
 21
193.584
  0
LINE
  8
0
 10
-14.9969
 20
193.584
 11
-14.9375
 21
193.627
  0
LINE
  8
0
 10
-14.9375
 20
193.627
 11
-10
 21
193.627
  0
LINE
  8
0
 10
-10
 20
193.627
 11
-10
 21
198.737
  0
LINE
  8
0
 10
-10
 20
198.737
 11
-14.9742
 21
198.737
  0
LINE
  8
0
 10
-14.9742
 20
198.737
 11
-14.9969
 21
198.807
  0
LINE
  8
0
 10
-14.9969
 20
198.807
 11
-14.9969
 21
203.78
  0
LINE
  8
0
 10
-14.9969
 20
203.78
 11
-14.9375
 21
203.824
  0
LINE
  8
0
 10
-14.9375
 20
203.824
 11
-10
 21
203.824
  0
LINE
  8
0
 10
-10
 20
203.824
 11
-10
 21
208.934
  0
LINE
  8
0
 10
-10
 20
208.934
 11
-14.9742
 21
208.934
  0
LINE
  8
0
 10
-14.9742
 20
208.934
 11
-14.9969
 21
209.003
  0
LINE
  8
0
 10
-14.9969
 20
209.003
 11
-14.9969
 21
213.976
  0
LINE
  8
0
 10
-14.9969
 20
213.976
 11
-14.9375
 21
214.02
  0
LINE
  8
0
 10
-14.9375
 20
214.02
 11
-10
 21
214.02
  0
LINE
  8
0
 10
-10
 20
214.02
 11
-10
 21
219.13
  0
LINE
  8
0
 10
-10
 20
219.13
 11
-14.9742
 21
219.13
  0
LINE
  8
0
 10
-14.9742
 20
219.13
 11
-14.9969
 21
219.199
  0
LINE
  8
0
 10
-14.9969
 20
219.199
 11
-14.9969
 21
224.172
  0
LINE
  8
0
 10
-14.9969
 20
224.172
 11
-14.9375
 21
224.216
  0
LINE
  8
0
 10
-14.9375
 20
224.216
 11
-10
 21
224.216
  0
LINE
  8
0
 10
-10
 20
224.216
 11
-10
 21
229.326
  0
LINE
  8
0
 10
-10
 20
229.326
 11
-14.9742
 21
229.326
  0
LINE
  8
0
 10
-14.9742
 20
229.326
 11
-14.9969
 21
229.396
  0
LINE
  8
0
 10
-14.9969
 20
229.396
 11
-14.9969
 21
234.369
  0
LINE
  8
0
 10
-14.9969
 20
234.369
 11
-14.9375
 21
234.412
  0
LINE
  8
0
 10
-14.9375
 20
234.412
 11
-10
 21
234.412
  0
LINE
  8
0
 10
-10
 20
234.412
 11
-10
 21
239.522
  0
LINE
  8
0
 10
-10
 20
239.522
 11
-14.9742
 21
239.522
  0
LINE
  8
0
 10
-14.9742
 20
239.522
 11
-14.9969
 21
239.592
  0
LINE
  8
0
 10
-14.9969
 20
239.592
 11
-14.9969
 21
244.565
  0
LINE
  8
0
 10
-14.9969
 20
244.565
 11
-14.9375
 21
244.608
  0
LINE
  8
0
 10
-14.9375
 20
244.608
 11
-10
 21
244.608
  0
LINE
  8
0
 10
-10
 20
244.608
 11
-10
 21
249.718
  0
LINE
  8
0
 10
-10
 20
249.718
 11
-14.9742
 21
249.718
  0
LINE
  8
0
 10
-14.9742
 20
249.718
 11
-14.9969
 21
249.788
  0
LINE
  8
0
 10
-14.9969
 20
249.788
 11
-14.9969
 21
254.761
  0
LINE
  8
0
 10
-14.9969
 20
254.761
 11
-14.9375
 21
254.804
  0
LINE
  8
0
 10
-14.9375
 20
254.804
 11
-10
 21
254.804
  0
LINE
  8
0
 10
-10
 20
254.804
 11
-10
 21
259.914
  0
LINE
  8
0
 10
-10
 20
259.914
 11
-14.9742
 21
259.914
  0
LINE
  8
0
 10
-14.9742
 20
259.914
 11
-14.9969
 21
259.984
  0
LINE
  8
0
 10
-14.9969
 20
259.984
 11
-14.9969
 21
264.937
  0
LINE
  8
0
 10
-14.9969
 20
264.937
 11
-15
 21
264.937
  0
LINE
  8
0
 10
-15
 20
264.937
 11
-15
 21
265
  0
LINE
  8
0
 10
-15
 20
265
 11
-10
 21
265
  0
LINE
  8
0
 10
-10
 20
265
 11
-10
 21
265
  0
LINE
  8
0
 10
-10
 20
265
 11
-10.0625
 21
265
  0
LINE
  8
0
 10
-10.0625
 20
265
 11
-10.0625
 21
265.009
  0
LINE
  8
0
 10
-10.0625
 20
265.009
 11
-10.0818
 21
265.003
  0
LINE
  8
0
 10
-10.0818
 20
265.003
 11
-14.9568
 21
265.003
  0
LINE
  8
0
 10
-14.9568
 20
265.003
 11
-15
 21
265.062
  0
LINE
  8
0
 10
-15
 20
265.062
 11
-15
 21
270
  0
LINE
  8
0
 10
-15
 20
270
 11
-20.0119
 21
270
  0
LINE
  8
0
 10
-20.0119
 20
270
 11
-20.0119
 21
265.026
  0
LINE
  8
0
 10
-20.0119
 20
265.026
 11
-20.0818
 21
265.003
  0
LINE
  8
0
 10
-20.0818
 20
265.003
 11
-24.9568
 21
265.003
  0
LINE
  8
0
 10
-24.9568
 20
265.003
 11
-25
 21
265.062
  0
LINE
  8
0
 10
-25
 20
265.062
 11
-25
 21
270
  0
LINE
  8
0
 10
-25
 20
270
 11
-30.0119
 21
270
  0
LINE
  8
0
 10
-30.0119
 20
270
 11
-30.0119
 21
265.026
  0
LINE
  8
0
 10
-30.0119
 20
265.026
 11
-30.0818
 21
265.003
  0
LINE
  8
0
 10
-30.0818
 20
265.003
 11
-34.9568
 21
265.003
  0
LINE
  8
0
 10
-34.9568
 20
265.003
 11
-35
 21
265.062
  0
LINE
  8
0
 10
-35
 20
265.062
 11
-35
 21
270
  0
LINE
  8
0
 10
-35
 20
270
 11
-40.0119
 21
270
  0
LINE
  8
0
 10
-40.0119
 20
270
 11
-40.0119
 21
265.026
  0
LINE
  8
0
 10
-40.0119
 20
265.026
 11
-40.0818
 21
265.003
  0
LINE
  8
0
 10
-40.0818
 20
265.003
 11
-44.9568
 21
265.003
  0
LINE
  8
0
 10
-44.9568
 20
265.003
 11
-45
 21
265.062
  0
LINE
  8
0
 10
-45
 20
265.062
 11
-45
 21
270
  0
LINE
  8
0
 10
-45
 20
270
 11
-50.0119
 21
270
  0
LINE
  8
0
 10
-50.0119
 20
270
 11
-50.0119
 21
265.026
  0
LINE
  8
0
 10
-50.0119
 20
265.026
 11
-50.0818
 21
265.003
  0
LINE
  8
0
 10
-50.0818
 20
265.003
 11
-54.9568
 21
265.003
  0
LINE
  8
0
 10
-54.9568
 20
265.003
 11
-55
 21
265.062
  0
LINE
  8
0
 10
-55
 20
265.062
 11
-55
 21
270
  0
LINE
  8
0
 10
-55
 20
270
 11
-60.0119
 21
270
  0
LINE
  8
0
 10
-60.0119
 20
270
 11
-60.0119
 21
265.026
  0
LINE
  8
0
 10
-60.0119
 20
265.026
 11
-60.0818
 21
265.003
  0
LINE
  8
0
 10
-60.0818
 20
265.003
 11
-64.9568
 21
265.003
  0
LINE
  8
0
 10
-64.9568
 20
265.003
 11
-65
 21
265.062
  0
LINE
  8
0
 10
-65
 20
265.062
 11
-65
 21
270
  0
LINE
  8
0
 10
-65
 20
270
 11
-70.0119
 21
270
  0
LINE
  8
0
 10
-70.0119
 20
270
 11
-70.0119
 21
265.026
  0
LINE
  8
0
 10
-70.0119
 20
265.026
 11
-70.0818
 21
265.003
  0
LINE
  8
0
 10
-70.0818
 20
265.003
 11
-74.9568
 21
265.003
  0
LINE
  8
0
 10
-74.9568
 20
265.003
 11
-75
 21
265.062
  0
LINE
  8
0
 10
-75
 20
265.062
 11
-75
 21
270
  0
LINE
  8
0
 10
-75
 20
270
 11
-80.0119
 21
270
  0
LINE
  8
0
 10
-80.0119
 20
270
 11
-80.0119
 21
265.026
  0
LINE
  8
0
 10
-80.0119
 20
265.026
 11
-80.0818
 21
265.003
  0
LINE
  8
0
 10
-80.0818
 20
265.003
 11
-84.9568
 21
265.003
  0
LINE
  8
0
 10
-84.9568
 20
265.003
 11
-85
 21
265.062
  0
LINE
  8
0
 10
-85
 20
265.062
 11
-85
 21
270
  0
LINE
  8
0
 10
-85
 20
270
 11
-90.0119
 21
270
  0
LINE
  8
0
 10
-90.0119
 20
270
 11
-90.0119
 21
265.026
  0
LINE
  8
0
 10
-90.0119
 20
265.026
 11
-90.0818
 21
265.003
  0
LINE
  8
0
 10
-90.0818
 20
265.003
 11
-94.9568
 21
265.003
  0
LINE
  8
0
 10
-94.9568
 20
265.003
 11
-95
 21
265.062
  0
LINE
  8
0
 10
-95
 20
265.062
 11
-95
 21
270
  0
LINE
  8
0
 10
-95
 20
270
 11
-100.012
 21
270
  0
LINE
  8
0
 10
-100.012
 20
270
 11
-100.012
 21
265.026
  0
LINE
  8
0
 10
-100.012
 20
265.026
 11
-100.082
 21
265.003
  0
LINE
  8
0
 10
-100.082
 20
265.003
 11
-104.957
 21
265.003
  0
LINE
  8
0
 10
-104.957
 20
265.003
 11
-105
 21
265.062
  0
LINE
  8
0
 10
-105
 20
265.062
 11
-105
 21
270
  0
LINE
  8
0
 10
-105
 20
270
 11
-110.012
 21
270
  0
LINE
  8
0
 10
-110.012
 20
270
 11
-110.012
 21
265.026
  0
LINE
  8
0
 10
-110.012
 20
265.026
 11
-110.082
 21
265.003
  0
LINE
  8
0
 10
-110.082
 20
265.003
 11
-114.957
 21
265.003
  0
LINE
  8
0
 10
-114.957
 20
265.003
 11
-115
 21
265.062
  0
LINE
  8
0
 10
-115
 20
265.062
 11
-115
 21
270
  0
LINE
  8
0
 10
-115
 20
270
 11
-120.012
 21
270
  0
LINE
  8
0
 10
-120.012
 20
270
 11
-120.012
 21
265.026
  0
LINE
  8
0
 10
-120.012
 20
265.026
 11
-120.082
 21
265.003
  0
LINE
  8
0
 10
-120.082
 20
265.003
 11
-124.957
 21
265.003
  0
LINE
  8
0
 10
-124.957
 20
265.003
 11
-125
 21
265.062
  0
LINE
  8
0
 10
-125
 20
265.062
 11
-125
 21
270
  0
LINE
  8
0
 10
-125
 20
270
 11
-130.012
 21
270
  0
LINE
  8
0
 10
-130.012
 20
270
 11
-130.012
 21
265.026
  0
LINE
  8
0
 10
-130.012
 20
265.026
 11
-130.082
 21
265.003
  0
LINE
  8
0
 10
-130.082
 20
265.003
 11
-134.957
 21
265.003
  0
LINE
  8
0
 10
-134.957
 20
265.003
 11
-135
 21
265.062
  0
LINE
  8
0
 10
-135
 20
265.062
 11
-135
 21
270
  0
LINE
  8
0
 10
-135
 20
270
 11
-140.012
 21
270
  0
LINE
  8
0
 10
-140.012
 20
270
 11
-140.012
 21
265.026
  0
LINE
  8
0
 10
-140.012
 20
265.026
 11
-140.082
 21
265.003
  0
LINE
  8
0
 10
-140.082
 20
265.003
 11
-144.957
 21
265.003
  0
LINE
  8
0
 10
-144.957
 20
265.003
 11
-145
 21
265.062
  0
LINE
  8
0
 10
-145
 20
265.062
 11
-145
 21
270
  0
LINE
  8
0
 10
-145
 20
270
 11
-150.012
 21
270
  0
LINE
  8
0
 10
-150.012
 20
270
 11
-150.012
 21
265.026
  0
LINE
  8
0
 10
-150.012
 20
265.026
 11
-150.082
 21
265.003
  0
LINE
  8
0
 10
-150.082
 20
265.003
 11
-154.957
 21
265.003
  0
LINE
  8
0
 10
-154.957
 20
265.003
 11
-155
 21
265.062
  0
LINE
  8
0
 10
-155
 20
265.062
 11
-155
 21
270
  0
LINE
  8
0
 10
-155
 20
270
 11
-160.012
 21
270
  0
LINE
  8
0
 10
-160.012
 20
270
 11
-160.012
 21
265.026
  0
LINE
  8
0
 10
-160.012
 20
265.026
 11
-160.082
 21
265.003
  0
LINE
  8
0
 10
-160.082
 20
265.003
 11
-164.957
 21
265.003
  0
LINE
  8
0
 10
-164.957
 20
265.003
 11
-165
 21
265.062
  0
LINE
  8
0
 10
-165
 20
265.062
 11
-165
 21
270
  0
LINE
  8
0
 10
-165
 20
270
 11
-170.012
 21
270
  0
LINE
  8
0
 10
-170.012
 20
270
 11
-170.012
 21
265.026
  0
LINE
  8
0
 10
-170.012
 20
265.026
 11
-170.082
 21
265.003
  0
LINE
  8
0
 10
-170.082
 20
265.003
 11
-174.957
 21
265.003
  0
LINE
  8
0
 10
-174.957
 20
265.003
 11
-175
 21
265.062
  0
LINE
  8
0
 10
-175
 20
265.062
 11
-175
 21
270
  0
LINE
  8
0
 10
-175
 20
270
 11
-180.012
 21
270
  0
LINE
  8
0
 10
-180.012
 20
270
 11
-180.012
 21
265.026
  0
LINE
  8
0
 10
-180.012
 20
265.026
 11
-180.082
 21
265.003
  0
LINE
  8
0
 10
-180.082
 20
265.003
 11
-184.957
 21
265.003
  0
LINE
  8
0
 10
-184.957
 20
265.003
 11
-185
 21
265.062
  0
LINE
  8
0
 10
-185
 20
265.062
 11
-185
 21
270
  0
LINE
  8
0
 10
-185
 20
270
 11
-190.012
 21
270
  0
LINE
  8
0
 10
-190.012
 20
270
 11
-190.012
 21
265.026
  0
LINE
  8
0
 10
-190.012
 20
265.026
 11
-190.082
 21
265.003
  0
LINE
  8
0
 10
-190.082
 20
265.003
 11
-194.957
 21
265.003
  0
LINE
  8
0
 10
-194.957
 20
265.003
 11
-195
 21
265.062
  0
LINE
  8
0
 10
-195
 20
265.062
 11
-195
 21
270
  0
LINE
  8
0
 10
-195
 20
270
 11
-200.012
 21
270
  0
LINE
  8
0
 10
-200.012
 20
270
 11
-200.012
 21
265.026
  0
LINE
  8
0
 10
-200.012
 20
265.026
 11
-200.082
 21
265.003
  0
LINE
  8
0
 10
-200.082
 20
265.003
 11
-204.957
 21
265.003
  0
LINE
  8
0
 10
-204.957
 20
265.003
 11
-205
 21
265.062
  0
LINE
  8
0
 10
-205
 20
265.062
 11
-205
 21
270
  0
LINE
  8
0
 10
-205
 20
270
 11
-210.012
 21
270
  0
LINE
  8
0
 10
-210.012
 20
270
 11
-210.012
 21
265.026
  0
LINE
  8
0
 10
-210.012
 20
265.026
 11
-210.082
 21
265.003
  0
LINE
  8
0
 10
-210.082
 20
265.003
 11
-214.957
 21
265.003
  0
LINE
  8
0
 10
-214.957
 20
265.003
 11
-215
 21
265.062
  0
LINE
  8
0
 10
-215
 20
265.062
 11
-215
 21
270
  0
LINE
  8
0
 10
-215
 20
270
 11
-220.012
 21
270
  0
LINE
  8
0
 10
-220.012
 20
270
 11
-220.012
 21
265.026
  0
LINE
  8
0
 10
-220.012
 20
265.026
 11
-220.082
 21
265.003
  0
LINE
  8
0
 10
-220.082
 20
265.003
 11
-224.957
 21
265.003
  0
LINE
  8
0
 10
-224.957
 20
265.003
 11
-225
 21
265.062
  0
LINE
  8
0
 10
-225
 20
265.062
 11
-225
 21
270
  0
LINE
  8
0
 10
-225
 20
270
 11
-230.012
 21
270
  0
LINE
  8
0
 10
-230.012
 20
270
 11
-230.012
 21
265.026
  0
LINE
  8
0
 10
-230.012
 20
265.026
 11
-230.082
 21
265.003
  0
LINE
  8
0
 10
-230.082
 20
265.003
 11
-234.957
 21
265.003
  0
LINE
  8
0
 10
-234.957
 20
265.003
 11
-235
 21
265.062
  0
LINE
  8
0
 10
-235
 20
265.062
 11
-235
 21
270
  0
LINE
  8
0
 10
-235
 20
270
 11
-240.012
 21
270
  0
LINE
  8
0
 10
-240.012
 20
270
 11
-240.012
 21
265.026
  0
LINE
  8
0
 10
-240.012
 20
265.026
 11
-240.082
 21
265.003
  0
LINE
  8
0
 10
-240.082
 20
265.003
 11
-244.957
 21
265.003
  0
LINE
  8
0
 10
-244.957
 20
265.003
 11
-245
 21
265.062
  0
LINE
  8
0
 10
-245
 20
265.062
 11
-245
 21
270
  0
LINE
  8
0
 10
-245
 20
270
 11
-250.012
 21
270
  0
LINE
  8
0
 10
-250.012
 20
270
 11
-250.012
 21
265.026
  0
LINE
  8
0
 10
-250.012
 20
265.026
 11
-250.082
 21
265.003
  0
LINE
  8
0
 10
-250.082
 20
265.003
 11
-254.957
 21
265.003
  0
LINE
  8
0
 10
-254.957
 20
265.003
 11
-255
 21
265.062
  0
LINE
  8
0
 10
-255
 20
265.062
 11
-255
 21
270
  0
LINE
  8
0
 10
-255
 20
270
 11
-260.012
 21
270
  0
LINE
  8
0
 10
-260.012
 20
270
 11
-260.012
 21
265.026
  0
LINE
  8
0
 10
-260.012
 20
265.026
 11
-260.082
 21
265.003
  0
LINE
  8
0
 10
-260.082
 20
265.003
 11
-264.957
 21
265.003
  0
LINE
  8
0
 10
-264.957
 20
265.003
 11
-265
 21
265.062
  0
LINE
  8
0
 10
-265
 20
265.062
 11
-265
 21
270
  0
LINE
  8
0
 10
-265
 20
270
 11
-270.012
 21
270
  0
LINE
  8
0
 10
-270.012
 20
270
 11
-270.012
 21
265.026
  0
LINE
  8
0
 10
-270.012
 20
265.026
 11
-270.082
 21
265.003
  0
LINE
  8
0
 10
-270.082
 20
265.003
 11
-274.957
 21
265.003
  0
LINE
  8
0
 10
-274.957
 20
265.003
 11
-275
 21
265.062
  0
LINE
  8
0
 10
-275
 20
265.062
 11
-275
 21
270
  0
LINE
  8
0
 10
-275
 20
270
 11
-280.012
 21
270
  0
LINE
  8
0
 10
-280.012
 20
270
 11
-280.012
 21
265.026
  0
LINE
  8
0
 10
-280.012
 20
265.026
 11
-280.082
 21
265.003
  0
LINE
  8
0
 10
-280.082
 20
265.003
 11
-284.957
 21
265.003
  0
LINE
  8
0
 10
-284.957
 20
265.003
 11
-285
 21
265.062
  0
LINE
  8
0
 10
-285
 20
265.062
 11
-285
 21
270
  0
LINE
  8
0
 10
-285
 20
270
 11
-290.012
 21
270
  0
LINE
  8
0
 10
-290.012
 20
270
 11
-290.012
 21
265.026
  0
LINE
  8
0
 10
-290.012
 20
265.026
 11
-290.082
 21
265.003
  0
LINE
  8
0
 10
-290.082
 20
265.003
 11
-294.957
 21
265.003
  0
LINE
  8
0
 10
-294.957
 20
265.003
 11
-295
 21
265.062
  0
LINE
  8
0
 10
-295
 20
265.062
 11
-295
 21
270
  0
LINE
  8
0
 10
-295
 20
270
 11
-300.012
 21
270
  0
LINE
  8
0
 10
-300.012
 20
270
 11
-300.012
 21
265.026
  0
LINE
  8
0
 10
-300.012
 20
265.026
 11
-300.082
 21
265.003
  0
LINE
  8
0
 10
-300.082
 20
265.003
 11
-304.957
 21
265.003
  0
LINE
  8
0
 10
-304.957
 20
265.003
 11
-305
 21
265.062
  0
LINE
  8
0
 10
-305
 20
265.062
 11
-305
 21
270
  0
LINE
  8
0
 10
-305
 20
270
 11
-310.012
 21
270
  0
LINE
  8
0
 10
-310.012
 20
270
 11
-310.012
 21
265.026
  0
LINE
  8
0
 10
-310.012
 20
265.026
 11
-310.082
 21
265.003
  0
LINE
  8
0
 10
-310.082
 20
265.003
 11
-314.957
 21
265.003
  0
LINE
  8
0
 10
-314.957
 20
265.003
 11
-315
 21
265.062
  0
LINE
  8
0
 10
-315
 20
265.062
 11
-315
 21
270
  0
LINE
  8
0
 10
-315
 20
270
 11
-320.012
 21
270
  0
LINE
  8
0
 10
-320.012
 20
270
 11
-320.012
 21
265.026
  0
LINE
  8
0
 10
-320.012
 20
265.026
 11
-320.082
 21
265.003
  0
LINE
  8
0
 10
-320.082
 20
265.003
 11
-324.938
 21
265.003
  0
LINE
  8
0
 10
-324.938
 20
265.003
 11
-324.938
 21
265
  0
LINE
  8
0
 10
-324.938
 20
265
 11
-325
 21
265
  0
LINE
  8
0
 10
-325
 20
265
 11
-325
 21
212.473
  0
LINE
  8
0
 10
-10
 20
0
 11
-10
 21
0
  0
LINE
  8
0
 10
-10
 20
0
 11
-10
 21
5
  0
LINE
  8
0
 10
-10
 20
5
 11
-10
 21
5
  0
LINE
  8
0
 10
-10
 20
5
 11
-10
 21
0
  0
LINE
  8
0
 10
0
 20
-92.5
 11
95
 21
-92.5
  0
LINE
  8
0
 10
95
 20
-92.5
 11
95
 21
-87.6351
  0
LINE
  8
0
 10
95
 20
-87.6351
 11
90.0258
 21
-87.6351
  0
LINE
  8
0
 10
90.0258
 20
-87.6351
 11
90.0031
 21
-87.5652
  0
LINE
  8
0
 10
90.0031
 20
-87.5652
 11
90.0031
 21
-82.8373
  0
LINE
  8
0
 10
90.0031
 20
-82.8373
 11
90.0625
 21
-82.7941
  0
LINE
  8
0
 10
90.0625
 20
-82.7941
 11
95
 21
-82.7941
  0
LINE
  8
0
 10
95
 20
-82.7941
 11
95
 21
-77.9292
  0
LINE
  8
0
 10
95
 20
-77.9292
 11
90.0258
 21
-77.9292
  0
LINE
  8
0
 10
90.0258
 20
-77.9292
 11
90.0031
 21
-77.8594
  0
LINE
  8
0
 10
90.0031
 20
-77.8594
 11
90.0031
 21
-73.1314
  0
LINE
  8
0
 10
90.0031
 20
-73.1314
 11
90.0625
 21
-73.0882
  0
LINE
  8
0
 10
90.0625
 20
-73.0882
 11
95
 21
-73.0882
  0
LINE
  8
0
 10
95
 20
-73.0882
 11
95
 21
-68.2234
  0
LINE
  8
0
 10
95
 20
-68.2234
 11
90.0258
 21
-68.2234
  0
LINE
  8
0
 10
90.0258
 20
-68.2234
 11
90.0031
 21
-68.1535
  0
LINE
  8
0
 10
90.0031
 20
-68.1535
 11
90.0031
 21
-63.4255
  0
LINE
  8
0
 10
90.0031
 20
-63.4255
 11
90.0625
 21
-63.3824
  0
LINE
  8
0
 10
90.0625
 20
-63.3824
 11
95
 21
-63.3824
  0
LINE
  8
0
 10
95
 20
-63.3824
 11
95
 21
-58.5175
  0
LINE
  8
0
 10
95
 20
-58.5175
 11
90.0258
 21
-58.5175
  0
LINE
  8
0
 10
90.0258
 20
-58.5175
 11
90.0031
 21
-58.4476
  0
LINE
  8
0
 10
90.0031
 20
-58.4476
 11
90.0031
 21
-53.7197
  0
LINE
  8
0
 10
90.0031
 20
-53.7197
 11
90.0625
 21
-53.6765
  0
LINE
  8
0
 10
90.0625
 20
-53.6765
 11
95
 21
-53.6765
  0
LINE
  8
0
 10
95
 20
-53.6765
 11
95
 21
-48.8116
  0
LINE
  8
0
 10
95
 20
-48.8116
 11
90.0258
 21
-48.8116
  0
LINE
  8
0
 10
90.0258
 20
-48.8116
 11
90.0031
 21
-48.7417
  0
LINE
  8
0
 10
90.0031
 20
-48.7417
 11
90.0031
 21
-44.0138
  0
LINE
  8
0
 10
90.0031
 20
-44.0138
 11
90.0625
 21
-43.9706
  0
LINE
  8
0
 10
90.0625
 20
-43.9706
 11
95
 21
-43.9706
  0
LINE
  8
0
 10
95
 20
-43.9706
 11
95
 21
-39.1057
  0
LINE
  8
0
 10
95
 20
-39.1057
 11
90.0258
 21
-39.1057
  0
LINE
  8
0
 10
90.0258
 20
-39.1057
 11
90.0031
 21
-39.0358
  0
LINE
  8
0
 10
90.0031
 20
-39.0358
 11
90.0031
 21
-34.3079
  0
LINE
  8
0
 10
90.0031
 20
-34.3079
 11
90.0625
 21
-34.2647
  0
LINE
  8
0
 10
90.0625
 20
-34.2647
 11
95
 21
-34.2647
  0
LINE
  8
0
 10
95
 20
-34.2647
 11
95
 21
-29.3998
  0
LINE
  8
0
 10
95
 20
-29.3998
 11
90.0258
 21
-29.3998
  0
LINE
  8
0
 10
90.0258
 20
-29.3998
 11
90.0031
 21
-29.33
  0
LINE
  8
0
 10
90.0031
 20
-29.33
 11
90.0031
 21
-24.602
  0
LINE
  8
0
 10
90.0031
 20
-24.602
 11
90.0625
 21
-24.5588
  0
LINE
  8
0
 10
90.0625
 20
-24.5588
 11
95
 21
-24.5588
  0
LINE
  8
0
 10
95
 20
-24.5588
 11
95
 21
-19.6939
  0
LINE
  8
0
 10
95
 20
-19.6939
 11
90.0258
 21
-19.6939
  0
LINE
  8
0
 10
90.0258
 20
-19.6939
 11
90.0031
 21
-19.6241
  0
LINE
  8
0
 10
90.0031
 20
-19.6241
 11
90.0031
 21
-14.8961
  0
LINE
  8
0
 10
90.0031
 20
-14.8961
 11
90.0625
 21
-14.8529
  0
LINE
  8
0
 10
90.0625
 20
-14.8529
 11
95
 21
-14.8529
  0
LINE
  8
0
 10
95
 20
-14.8529
 11
95
 21
-10
  0
LINE
  8
0
 10
95
 20
-10
 11
84.9881
 21
-10
  0
LINE
  8
0
 10
84.9881
 20
-10
 11
84.9881
 21
-14.9742
  0
LINE
  8
0
 10
84.9881
 20
-14.9742
 11
84.9182
 21
-14.9969
  0
LINE
  8
0
 10
84.9182
 20
-14.9969
 11
80.0432
 21
-14.9969
  0
LINE
  8
0
 10
80.0432
 20
-14.9969
 11
80
 21
-14.9375
  0
LINE
  8
0
 10
80
 20
-14.9375
 11
80
 21
-10
  0
LINE
  8
0
 10
80
 20
-10
 11
74.9881
 21
-10
  0
LINE
  8
0
 10
74.9881
 20
-10
 11
74.9881
 21
-14.9742
  0
LINE
  8
0
 10
74.9881
 20
-14.9742
 11
74.9182
 21
-14.9969
  0
LINE
  8
0
 10
74.9182
 20
-14.9969
 11
70.0432
 21
-14.9969
  0
LINE
  8
0
 10
70.0432
 20
-14.9969
 11
70
 21
-14.9375
  0
LINE
  8
0
 10
70
 20
-14.9375
 11
70
 21
-10
  0
LINE
  8
0
 10
70
 20
-10
 11
64.9881
 21
-10
  0
LINE
  8
0
 10
64.9881
 20
-10
 11
64.9881
 21
-14.9742
  0
LINE
  8
0
 10
64.9881
 20
-14.9742
 11
64.9182
 21
-14.9969
  0
LINE
  8
0
 10
64.9182
 20
-14.9969
 11
60.0432
 21
-14.9969
  0
LINE
  8
0
 10
60.0432
 20
-14.9969
 11
60
 21
-14.9375
  0
LINE
  8
0
 10
60
 20
-14.9375
 11
60
 21
-10
  0
LINE
  8
0
 10
60
 20
-10
 11
54.9881
 21
-10
  0
LINE
  8
0
 10
54.9881
 20
-10
 11
54.9881
 21
-14.9742
  0
LINE
  8
0
 10
54.9881
 20
-14.9742
 11
54.9182
 21
-14.9969
  0
LINE
  8
0
 10
54.9182
 20
-14.9969
 11
50.0432
 21
-14.9969
  0
LINE
  8
0
 10
50.0432
 20
-14.9969
 11
50
 21
-14.9375
  0
LINE
  8
0
 10
50
 20
-14.9375
 11
50
 21
-10
  0
LINE
  8
0
 10
50
 20
-10
 11
44.9881
 21
-10
  0
LINE
  8
0
 10
44.9881
 20
-10
 11
44.9881
 21
-14.9742
  0
LINE
  8
0
 10
44.9881
 20
-14.9742
 11
44.9182
 21
-14.9969
  0
LINE
  8
0
 10
44.9182
 20
-14.9969
 11
40.0432
 21
-14.9969
  0
LINE
  8
0
 10
40.0432
 20
-14.9969
 11
40
 21
-14.9375
  0
LINE
  8
0
 10
40
 20
-14.9375
 11
40
 21
-10
  0
LINE
  8
0
 10
40
 20
-10
 11
34.9881
 21
-10
  0
LINE
  8
0
 10
34.9881
 20
-10
 11
34.9881
 21
-14.9742
  0
LINE
  8
0
 10
34.9881
 20
-14.9742
 11
34.9182
 21
-14.9969
  0
LINE
  8
0
 10
34.9182
 20
-14.9969
 11
30.0432
 21
-14.9969
  0
LINE
  8
0
 10
30.0432
 20
-14.9969
 11
30
 21
-14.9375
  0
LINE
  8
0
 10
30
 20
-14.9375
 11
30
 21
-10
  0
LINE
  8
0
 10
30
 20
-10
 11
24.9881
 21
-10
  0
LINE
  8
0
 10
24.9881
 20
-10
 11
24.9881
 21
-14.9742
  0
LINE
  8
0
 10
24.9881
 20
-14.9742
 11
24.9182
 21
-14.9969
  0
LINE
  8
0
 10
24.9182
 20
-14.9969
 11
20.0432
 21
-14.9969
  0
LINE
  8
0
 10
20.0432
 20
-14.9969
 11
20
 21
-14.9375
  0
LINE
  8
0
 10
20
 20
-14.9375
 11
20
 21
-10
  0
LINE
  8
0
 10
20
 20
-10
 11
14.9881
 21
-10
  0
LINE
  8
0
 10
14.9881
 20
-10
 11
14.9881
 21
-14.9742
  0
LINE
  8
0
 10
14.9881
 20
-14.9742
 11
14.9182
 21
-14.9969
  0
LINE
  8
0
 10
14.9182
 20
-14.9969
 11
10.0432
 21
-14.9969
  0
LINE
  8
0
 10
10.0432
 20
-14.9969
 11
10
 21
-14.9375
  0
LINE
  8
0
 10
10
 20
-14.9375
 11
10
 21
-10
  0
LINE
  8
0
 10
10
 20
-10
 11
0
 21
-10
  0
LINE
  8
0
 10
0
 20
-10
 11
0
 21
-14.8649
  0
LINE
  8
0
 10
0
 20
-14.8649
 11
4.97424
 21
-14.8649
  0
LINE
  8
0
 10
4.97424
 20
-14.8649
 11
4.99694
 21
-14.9348
  0
LINE
  8
0
 10
4.99694
 20
-14.9348
 11
4.99694
 21
-19.6627
  0
LINE
  8
0
 10
4.99694
 20
-19.6627
 11
4.9375
 21
-19.7059
  0
LINE
  8
0
 10
4.9375
 20
-19.7059
 11
0
 21
-19.7059
  0
LINE
  8
0
 10
0
 20
-19.7059
 11
0
 21
-24.5708
  0
LINE
  8
0
 10
0
 20
-24.5708
 11
4.97424
 21
-24.5708
  0
LINE
  8
0
 10
4.97424
 20
-24.5708
 11
4.99694
 21
-24.6406
  0
LINE
  8
0
 10
4.99694
 20
-24.6406
 11
4.99694
 21
-29.3686
  0
LINE
  8
0
 10
4.99694
 20
-29.3686
 11
4.9375
 21
-29.4118
  0
LINE
  8
0
 10
4.9375
 20
-29.4118
 11
0
 21
-29.4118
  0
LINE
  8
0
 10
0
 20
-29.4118
 11
0
 21
-34.2766
  0
LINE
  8
0
 10
0
 20
-34.2766
 11
4.97424
 21
-34.2766
  0
LINE
  8
0
 10
4.97424
 20
-34.2766
 11
4.99694
 21
-34.3465
  0
LINE
  8
0
 10
4.99694
 20
-34.3465
 11
4.99694
 21
-39.0745
  0
LINE
  8
0
 10
4.99694
 20
-39.0745
 11
4.9375
 21
-39.1176
  0
LINE
  8
0
 10
4.9375
 20
-39.1176
 11
0
 21
-39.1176
  0
LINE
  8
0
 10
0
 20
-39.1176
 11
0
 21
-43.9825
  0
LINE
  8
0
 10
0
 20
-43.9825
 11
4.97424
 21
-43.9825
  0
LINE
  8
0
 10
4.97424
 20
-43.9825
 11
4.99694
 21
-44.0524
  0
LINE
  8
0
 10
4.99694
 20
-44.0524
 11
4.99694
 21
-48.7803
  0
LINE
  8
0
 10
4.99694
 20
-48.7803
 11
4.9375
 21
-48.8235
  0
LINE
  8
0
 10
4.9375
 20
-48.8235
 11
0
 21
-48.8235
  0
LINE
  8
0
 10
0
 20
-48.8235
 11
0
 21
-53.6884
  0
LINE
  8
0
 10
0
 20
-53.6884
 11
4.97424
 21
-53.6884
  0
LINE
  8
0
 10
4.97424
 20
-53.6884
 11
4.99694
 21
-53.7583
  0
LINE
  8
0
 10
4.99694
 20
-53.7583
 11
4.99694
 21
-58.4862
  0
LINE
  8
0
 10
4.99694
 20
-58.4862
 11
4.9375
 21
-58.5294
  0
LINE
  8
0
 10
4.9375
 20
-58.5294
 11
0
 21
-58.5294
  0
LINE
  8
0
 10
0
 20
-58.5294
 11
0
 21
-63.3943
  0
LINE
  8
0
 10
0
 20
-63.3943
 11
4.97424
 21
-63.3943
  0
LINE
  8
0
 10
4.97424
 20
-63.3943
 11
4.99694
 21
-63.4642
  0
LINE
  8
0
 10
4.99694
 20
-63.4642
 11
4.99694
 21
-68.1921
  0
LINE
  8
0
 10
4.99694
 20
-68.1921
 11
4.9375
 21
-68.2353
  0
LINE
  8
0
 10
4.9375
 20
-68.2353
 11
0
 21
-68.2353
  0
LINE
  8
0
 10
0
 20
-68.2353
 11
0
 21
-73.1002
  0
LINE
  8
0
 10
0
 20
-73.1002
 11
4.97424
 21
-73.1002
  0
LINE
  8
0
 10
4.97424
 20
-73.1002
 11
4.99694
 21
-73.17
  0
LINE
  8
0
 10
4.99694
 20
-73.17
 11
4.99694
 21
-77.898
  0
LINE
  8
0
 10
4.99694
 20
-77.898
 11
4.9375
 21
-77.9412
  0
LINE
  8
0
 10
4.9375
 20
-77.9412
 11
0
 21
-77.9412
  0
LINE
  8
0
 10
0
 20
-77.9412
 11
0
 21
-82.8061
  0
LINE
  8
0
 10
0
 20
-82.8061
 11
4.97424
 21
-82.8061
  0
LINE
  8
0
 10
4.97424
 20
-82.8061
 11
4.99694
 21
-82.8759
  0
LINE
  8
0
 10
4.99694
 20
-82.8759
 11
4.99694
 21
-87.6039
  0
LINE
  8
0
 10
4.99694
 20
-87.6039
 11
4.9375
 21
-87.6471
  0
LINE
  8
0
 10
4.9375
 20
-87.6471
 11
0
 21
-87.6471
  0
LINE
  8
0
 10
0
 20
-87.6471
 11
0
 21
-92.5
  0
LINE
  8
0
 10
0
 20
5
 11
5.0625
 21
5
  0
LINE
  8
0
 10
5.0625
 20
5
 11
5.0625
 21
4.99067
  0
LINE
  8
0
 10
5.0625
 20
4.99067
 11
5.08181
 21
4.99694
  0
LINE
  8
0
 10
5.08181
 20
4.99694
 11
9.95681
 21
4.99694
  0
LINE
  8
0
 10
9.95681
 20
4.99694
 11
10
 21
4.9375
  0
LINE
  8
0
 10
10
 20
4.9375
 11
10
 21
0
  0
LINE
  8
0
 10
10
 20
0
 11
15.0119
 21
0
  0
LINE
  8
0
 10
15.0119
 20
0
 11
15.0119
 21
4.97424
  0
LINE
  8
0
 10
15.0119
 20
4.97424
 11
15.0818
 21
4.99694
  0
LINE
  8
0
 10
15.0818
 20
4.99694
 11
19.9568
 21
4.99694
  0
LINE
  8
0
 10
19.9568
 20
4.99694
 11
20
 21
4.9375
  0
LINE
  8
0
 10
20
 20
4.9375
 11
20
 21
0
  0
LINE
  8
0
 10
20
 20
0
 11
25.0119
 21
0
  0
LINE
  8
0
 10
25.0119
 20
0
 11
25.0119
 21
4.97424
  0
LINE
  8
0
 10
25.0119
 20
4.97424
 11
25.0818
 21
4.99694
  0
LINE
  8
0
 10
25.0818
 20
4.99694
 11
29.9568
 21
4.99694
  0
LINE
  8
0
 10
29.9568
 20
4.99694
 11
30
 21
4.9375
  0
LINE
  8
0
 10
30
 20
4.9375
 11
30
 21
0
  0
LINE
  8
0
 10
30
 20
0
 11
35.0119
 21
0
  0
LINE
  8
0
 10
35.0119
 20
0
 11
35.0119
 21
4.97424
  0
LINE
  8
0
 10
35.0119
 20
4.97424
 11
35.0818
 21
4.99694
  0
LINE
  8
0
 10
35.0818
 20
4.99694
 11
39.9568
 21
4.99694
  0
LINE
  8
0
 10
39.9568
 20
4.99694
 11
40
 21
4.9375
  0
LINE
  8
0
 10
40
 20
4.9375
 11
40
 21
0
  0
LINE
  8
0
 10
40
 20
0
 11
45.0119
 21
0
  0
LINE
  8
0
 10
45.0119
 20
0
 11
45.0119
 21
4.97424
  0
LINE
  8
0
 10
45.0119
 20
4.97424
 11
45.0818
 21
4.99694
  0
LINE
  8
0
 10
45.0818
 20
4.99694
 11
49.9568
 21
4.99694
  0
LINE
  8
0
 10
49.9568
 20
4.99694
 11
50
 21
4.9375
  0
LINE
  8
0
 10
50
 20
4.9375
 11
50
 21
0
  0
LINE
  8
0
 10
50
 20
0
 11
55.0119
 21
0
  0
LINE
  8
0
 10
55.0119
 20
0
 11
55.0119
 21
4.97424
  0
LINE
  8
0
 10
55.0119
 20
4.97424
 11
55.0818
 21
4.99694
  0
LINE
  8
0
 10
55.0818
 20
4.99694
 11
59.9568
 21
4.99694
  0
LINE
  8
0
 10
59.9568
 20
4.99694
 11
60
 21
4.9375
  0
LINE
  8
0
 10
60
 20
4.9375
 11
60
 21
0
  0
LINE
  8
0
 10
60
 20
0
 11
65.0119
 21
0
  0
LINE
  8
0
 10
65.0119
 20
0
 11
65.0119
 21
4.97424
  0
LINE
  8
0
 10
65.0119
 20
4.97424
 11
65.0818
 21
4.99694
  0
LINE
  8
0
 10
65.0818
 20
4.99694
 11
69.9568
 21
4.99694
  0
LINE
  8
0
 10
69.9568
 20
4.99694
 11
70
 21
4.9375
  0
LINE
  8
0
 10
70
 20
4.9375
 11
70
 21
0
  0
LINE
  8
0
 10
70
 20
0
 11
75.0119
 21
0
  0
LINE
  8
0
 10
75.0119
 20
0
 11
75.0119
 21
4.97424
  0
LINE
  8
0
 10
75.0119
 20
4.97424
 11
75.0818
 21
4.99694
  0
LINE
  8
0
 10
75.0818
 20
4.99694
 11
79.9568
 21
4.99694
  0
LINE
  8
0
 10
79.9568
 20
4.99694
 11
80
 21
4.9375
  0
LINE
  8
0
 10
80
 20
4.9375
 11
80
 21
0
  0
LINE
  8
0
 10
80
 20
0
 11
85.0119
 21
0
  0
LINE
  8
0
 10
85.0119
 20
0
 11
85.0119
 21
4.97424
  0
LINE
  8
0
 10
85.0119
 20
4.97424
 11
85.0818
 21
4.99694
  0
LINE
  8
0
 10
85.0818
 20
4.99694
 11
89.9375
 21
4.99694
  0
LINE
  8
0
 10
89.9375
 20
4.99694
 11
89.9375
 21
5
  0
LINE
  8
0
 10
89.9375
 20
5
 11
95
 21
5
  0
LINE
  8
0
 10
95
 20
5
 11
95
 21
10.11
  0
LINE
  8
0
 10
95
 20
10.11
 11
90.0258
 21
10.11
  0
LINE
  8
0
 10
90.0258
 20
10.11
 11
90.0031
 21
10.1799
  0
LINE
  8
0
 10
90.0031
 20
10.1799
 11
90.0031
 21
15.1529
  0
LINE
  8
0
 10
90.0031
 20
15.1529
 11
90.0625
 21
15.1961
  0
LINE
  8
0
 10
90.0625
 20
15.1961
 11
95
 21
15.1961
  0
LINE
  8
0
 10
95
 20
15.1961
 11
95
 21
20.3061
  0
LINE
  8
0
 10
95
 20
20.3061
 11
90.0258
 21
20.3061
  0
LINE
  8
0
 10
90.0258
 20
20.3061
 11
90.0031
 21
20.3759
  0
LINE
  8
0
 10
90.0031
 20
20.3759
 11
90.0031
 21
25.349
  0
LINE
  8
0
 10
90.0031
 20
25.349
 11
90.0625
 21
25.3922
  0
LINE
  8
0
 10
90.0625
 20
25.3922
 11
95
 21
25.3922
  0
LINE
  8
0
 10
95
 20
25.3922
 11
95
 21
30.5021
  0
LINE
  8
0
 10
95
 20
30.5021
 11
90.0258
 21
30.5021
  0
LINE
  8
0
 10
90.0258
 20
30.5021
 11
90.0031
 21
30.572
  0
LINE
  8
0
 10
90.0031
 20
30.572
 11
90.0031
 21
35.545
  0
LINE
  8
0
 10
90.0031
 20
35.545
 11
90.0625
 21
35.5882
  0
LINE
  8
0
 10
90.0625
 20
35.5882
 11
95
 21
35.5882
  0
LINE
  8
0
 10
95
 20
35.5882
 11
95
 21
40.6982
  0
LINE
  8
0
 10
95
 20
40.6982
 11
90.0258
 21
40.6982
  0
LINE
  8
0
 10
90.0258
 20
40.6982
 11
90.0031
 21
40.7681
  0
LINE
  8
0
 10
90.0031
 20
40.7681
 11
90.0031
 21
45.7411
  0
LINE
  8
0
 10
90.0031
 20
45.7411
 11
90.0625
 21
45.7843
  0
LINE
  8
0
 10
90.0625
 20
45.7843
 11
95
 21
45.7843
  0
LINE
  8
0
 10
95
 20
45.7843
 11
95
 21
50.8943
  0
LINE
  8
0
 10
95
 20
50.8943
 11
90.0258
 21
50.8943
  0
LINE
  8
0
 10
90.0258
 20
50.8943
 11
90.0031
 21
50.9642
  0
LINE
  8
0
 10
90.0031
 20
50.9642
 11
90.0031
 21
55.9372
  0
LINE
  8
0
 10
90.0031
 20
55.9372
 11
90.0625
 21
55.9804
  0
LINE
  8
0
 10
90.0625
 20
55.9804
 11
95
 21
55.9804
  0
LINE
  8
0
 10
95
 20
55.9804
 11
95
 21
61.0904
  0
LINE
  8
0
 10
95
 20
61.0904
 11
90.0258
 21
61.0904
  0
LINE
  8
0
 10
90.0258
 20
61.0904
 11
90.0031
 21
61.1602
  0
LINE
  8
0
 10
90.0031
 20
61.1602
 11
90.0031
 21
66.1333
  0
LINE
  8
0
 10
90.0031
 20
66.1333
 11
90.0625
 21
66.1765
  0
LINE
  8
0
 10
90.0625
 20
66.1765
 11
95
 21
66.1765
  0
LINE
  8
0
 10
95
 20
66.1765
 11
95
 21
71.2864
  0
LINE
  8
0
 10
95
 20
71.2864
 11
90.0258
 21
71.2864
  0
LINE
  8
0
 10
90.0258
 20
71.2864
 11
90.0031
 21
71.3563
  0
LINE
  8
0
 10
90.0031
 20
71.3563
 11
90.0031
 21
76.3294
  0
LINE
  8
0
 10
90.0031
 20
76.3294
 11
90.0625
 21
76.3725
  0
LINE
  8
0
 10
90.0625
 20
76.3725
 11
95
 21
76.3725
  0
LINE
  8
0
 10
95
 20
76.3725
 11
95
 21
81.4825
  0
LINE
  8
0
 10
95
 20
81.4825
 11
90.0258
 21
81.4825
  0
LINE
  8
0
 10
90.0258
 20
81.4825
 11
90.0031
 21
81.5524
  0
LINE
  8
0
 10
90.0031
 20
81.5524
 11
90.0031
 21
86.5254
  0
LINE
  8
0
 10
90.0031
 20
86.5254
 11
90.0625
 21
86.5686
  0
LINE
  8
0
 10
90.0625
 20
86.5686
 11
95
 21
86.5686
  0
LINE
  8
0
 10
95
 20
86.5686
 11
95
 21
91.6786
  0
LINE
  8
0
 10
95
 20
91.6786
 11
90.0258
 21
91.6786
  0
LINE
  8
0
 10
90.0258
 20
91.6786
 11
90.0031
 21
91.7485
  0
LINE
  8
0
 10
90.0031
 20
91.7485
 11
90.0031
 21
96.7215
  0
LINE
  8
0
 10
90.0031
 20
96.7215
 11
90.0625
 21
96.7647
  0
LINE
  8
0
 10
90.0625
 20
96.7647
 11
95
 21
96.7647
  0
LINE
  8
0
 10
95
 20
96.7647
 11
95
 21
101.875
  0
LINE
  8
0
 10
95
 20
101.875
 11
90.0258
 21
101.875
  0
LINE
  8
0
 10
90.0258
 20
101.875
 11
90.0031
 21
101.945
  0
LINE
  8
0
 10
90.0031
 20
101.945
 11
90.0031
 21
106.918
  0
LINE
  8
0
 10
90.0031
 20
106.918
 11
90.0625
 21
106.961
  0
LINE
  8
0
 10
90.0625
 20
106.961
 11
95
 21
106.961
  0
LINE
  8
0
 10
95
 20
106.961
 11
95
 21
112.071
  0
LINE
  8
0
 10
95
 20
112.071
 11
90.0258
 21
112.071
  0
LINE
  8
0
 10
90.0258
 20
112.071
 11
90.0031
 21
112.141
  0
LINE
  8
0
 10
90.0031
 20
112.141
 11
90.0031
 21
117.114
  0
LINE
  8
0
 10
90.0031
 20
117.114
 11
90.0625
 21
117.157
  0
LINE
  8
0
 10
90.0625
 20
117.157
 11
95
 21
117.157
  0
LINE
  8
0
 10
95
 20
117.157
 11
95
 21
122.267
  0
LINE
  8
0
 10
95
 20
122.267
 11
90.0258
 21
122.267
  0
LINE
  8
0
 10
90.0258
 20
122.267
 11
90.0031
 21
122.337
  0
LINE
  8
0
 10
90.0031
 20
122.337
 11
90.0031
 21
127.31
  0
LINE
  8
0
 10
90.0031
 20
127.31
 11
90.0625
 21
127.353
  0
LINE
  8
0
 10
90.0625
 20
127.353
 11
95
 21
127.353
  0
LINE
  8
0
 10
95
 20
127.353
 11
95
 21
132.463
  0
LINE
  8
0
 10
95
 20
132.463
 11
90.0258
 21
132.463
  0
LINE
  8
0
 10
90.0258
 20
132.463
 11
90.0031
 21
132.533
  0
LINE
  8
0
 10
90.0031
 20
132.533
 11
90.0031
 21
137.506
  0
LINE
  8
0
 10
90.0031
 20
137.506
 11
90.0625
 21
137.549
  0
LINE
  8
0
 10
90.0625
 20
137.549
 11
95
 21
137.549
  0
LINE
  8
0
 10
95
 20
137.549
 11
95
 21
142.659
  0
LINE
  8
0
 10
95
 20
142.659
 11
90.0258
 21
142.659
  0
LINE
  8
0
 10
90.0258
 20
142.659
 11
90.0031
 21
142.729
  0
LINE
  8
0
 10
90.0031
 20
142.729
 11
90.0031
 21
147.702
  0
LINE
  8
0
 10
90.0031
 20
147.702
 11
90.0625
 21
147.745
  0
LINE
  8
0
 10
90.0625
 20
147.745
 11
95
 21
147.745
  0
LINE
  8
0
 10
95
 20
147.745
 11
95
 21
152.855
  0
LINE
  8
0
 10
95
 20
152.855
 11
90.0258
 21
152.855
  0
LINE
  8
0
 10
90.0258
 20
152.855
 11
90.0031
 21
152.925
  0
LINE
  8
0
 10
90.0031
 20
152.925
 11
90.0031
 21
157.898
  0
LINE
  8
0
 10
90.0031
 20
157.898
 11
90.0625
 21
157.941
  0
LINE
  8
0
 10
90.0625
 20
157.941
 11
95
 21
157.941
  0
LINE
  8
0
 10
95
 20
157.941
 11
95
 21
163.051
  0
LINE
  8
0
 10
95
 20
163.051
 11
90.0258
 21
163.051
  0
LINE
  8
0
 10
90.0258
 20
163.051
 11
90.0031
 21
163.121
  0
LINE
  8
0
 10
90.0031
 20
163.121
 11
90.0031
 21
168.094
  0
LINE
  8
0
 10
90.0031
 20
168.094
 11
90.0625
 21
168.137
  0
LINE
  8
0
 10
90.0625
 20
168.137
 11
95
 21
168.137
  0
LINE
  8
0
 10
95
 20
168.137
 11
95
 21
173.247
  0
LINE
  8
0
 10
95
 20
173.247
 11
90.0258
 21
173.247
  0
LINE
  8
0
 10
90.0258
 20
173.247
 11
90.0031
 21
173.317
  0
LINE
  8
0
 10
90.0031
 20
173.317
 11
90.0031
 21
178.29
  0
LINE
  8
0
 10
90.0031
 20
178.29
 11
90.0625
 21
178.333
  0
LINE
  8
0
 10
90.0625
 20
178.333
 11
95
 21
178.333
  0
LINE
  8
0
 10
95
 20
178.333
 11
95
 21
183.443
  0
LINE
  8
0
 10
95
 20
183.443
 11
90.0258
 21
183.443
  0
LINE
  8
0
 10
90.0258
 20
183.443
 11
90.0031
 21
183.513
  0
LINE
  8
0
 10
90.0031
 20
183.513
 11
90.0031
 21
188.486
  0
LINE
  8
0
 10
90.0031
 20
188.486
 11
90.0625
 21
188.529
  0
LINE
  8
0
 10
90.0625
 20
188.529
 11
95
 21
188.529
  0
LINE
  8
0
 10
95
 20
188.529
 11
95
 21
193.639
  0
LINE
  8
0
 10
95
 20
193.639
 11
90.0258
 21
193.639
  0
LINE
  8
0
 10
90.0258
 20
193.639
 11
90.0031
 21
193.709
  0
LINE
  8
0
 10
90.0031
 20
193.709
 11
90.0031
 21
198.682
  0
LINE
  8
0
 10
90.0031
 20
198.682
 11
90.0625
 21
198.725
  0
LINE
  8
0
 10
90.0625
 20
198.725
 11
95
 21
198.725
  0
LINE
  8
0
 10
95
 20
198.725
 11
95
 21
203.835
  0
LINE
  8
0
 10
95
 20
203.835
 11
90.0258
 21
203.835
  0
LINE
  8
0
 10
90.0258
 20
203.835
 11
90.0031
 21
203.905
  0
LINE
  8
0
 10
90.0031
 20
203.905
 11
90.0031
 21
208.878
  0
LINE
  8
0
 10
90.0031
 20
208.878
 11
90.0625
 21
208.922
  0
LINE
  8
0
 10
90.0625
 20
208.922
 11
95
 21
208.922
  0
LINE
  8
0
 10
95
 20
208.922
 11
95
 21
214.032
  0
LINE
  8
0
 10
95
 20
214.032
 11
90.0258
 21
214.032
  0
LINE
  8
0
 10
90.0258
 20
214.032
 11
90.0031
 21
214.101
  0
LINE
  8
0
 10
90.0031
 20
214.101
 11
90.0031
 21
219.074
  0
LINE
  8
0
 10
90.0031
 20
219.074
 11
90.0625
 21
219.118
  0
LINE
  8
0
 10
90.0625
 20
219.118
 11
95
 21
219.118
  0
LINE
  8
0
 10
95
 20
219.118
 11
95
 21
224.228
  0
LINE
  8
0
 10
95
 20
224.228
 11
90.0258
 21
224.228
  0
LINE
  8
0
 10
90.0258
 20
224.228
 11
90.0031
 21
224.297
  0
LINE
  8
0
 10
90.0031
 20
224.297
 11
90.0031
 21
229.271
  0
LINE
  8
0
 10
90.0031
 20
229.271
 11
90.0625
 21
229.314
  0
LINE
  8
0
 10
90.0625
 20
229.314
 11
95
 21
229.314
  0
LINE
  8
0
 10
95
 20
229.314
 11
95
 21
234.424
  0
LINE
  8
0
 10
95
 20
234.424
 11
90.0258
 21
234.424
  0
LINE
  8
0
 10
90.0258
 20
234.424
 11
90.0031
 21
234.494
  0
LINE
  8
0
 10
90.0031
 20
234.494
 11
90.0031
 21
239.467
  0
LINE
  8
0
 10
90.0031
 20
239.467
 11
90.0625
 21
239.51
  0
LINE
  8
0
 10
90.0625
 20
239.51
 11
95
 21
239.51
  0
LINE
  8
0
 10
95
 20
239.51
 11
95
 21
244.62
  0
LINE
  8
0
 10
95
 20
244.62
 11
90.0258
 21
244.62
  0
LINE
  8
0
 10
90.0258
 20
244.62
 11
90.0031
 21
244.69
  0
LINE
  8
0
 10
90.0031
 20
244.69
 11
90.0031
 21
249.663
  0
LINE
  8
0
 10
90.0031
 20
249.663
 11
90.0625
 21
249.706
  0
LINE
  8
0
 10
90.0625
 20
249.706
 11
95
 21
249.706
  0
LINE
  8
0
 10
95
 20
249.706
 11
95
 21
254.816
  0
LINE
  8
0
 10
95
 20
254.816
 11
90.0258
 21
254.816
  0
LINE
  8
0
 10
90.0258
 20
254.816
 11
90.0031
 21
254.886
  0
LINE
  8
0
 10
90.0031
 20
254.886
 11
90.0031
 21
259.859
  0
LINE
  8
0
 10
90.0031
 20
259.859
 11
90.0625
 21
259.902
  0
LINE
  8
0
 10
90.0625
 20
259.902
 11
95
 21
259.902
  0
LINE
  8
0
 10
95
 20
259.902
 11
95
 21
265
  0
LINE
  8
0
 10
95
 20
265
 11
89.9375
 21
265
  0
LINE
  8
0
 10
89.9375
 20
265
 11
89.9375
 21
265.009
  0
LINE
  8
0
 10
89.9375
 20
265.009
 11
89.9182
 21
265.003
  0
LINE
  8
0
 10
89.9182
 20
265.003
 11
85.0432
 21
265.003
  0
LINE
  8
0
 10
85.0432
 20
265.003
 11
85
 21
265.062
  0
LINE
  8
0
 10
85
 20
265.062
 11
85
 21
270
  0
LINE
  8
0
 10
85
 20
270
 11
79.9881
 21
270
  0
LINE
  8
0
 10
79.9881
 20
270
 11
79.9881
 21
265.026
  0
LINE
  8
0
 10
79.9881
 20
265.026
 11
79.9182
 21
265.003
  0
LINE
  8
0
 10
79.9182
 20
265.003
 11
75.0432
 21
265.003
  0
LINE
  8
0
 10
75.0432
 20
265.003
 11
75
 21
265.062
  0
LINE
  8
0
 10
75
 20
265.062
 11
75
 21
270
  0
LINE
  8
0
 10
75
 20
270
 11
69.9881
 21
270
  0
LINE
  8
0
 10
69.9881
 20
270
 11
69.9881
 21
265.026
  0
LINE
  8
0
 10
69.9881
 20
265.026
 11
69.9182
 21
265.003
  0
LINE
  8
0
 10
69.9182
 20
265.003
 11
65.0432
 21
265.003
  0
LINE
  8
0
 10
65.0432
 20
265.003
 11
65
 21
265.062
  0
LINE
  8
0
 10
65
 20
265.062
 11
65
 21
270
  0
LINE
  8
0
 10
65
 20
270
 11
59.9881
 21
270
  0
LINE
  8
0
 10
59.9881
 20
270
 11
59.9881
 21
265.026
  0
LINE
  8
0
 10
59.9881
 20
265.026
 11
59.9182
 21
265.003
  0
LINE
  8
0
 10
59.9182
 20
265.003
 11
55.0432
 21
265.003
  0
LINE
  8
0
 10
55.0432
 20
265.003
 11
55
 21
265.062
  0
LINE
  8
0
 10
55
 20
265.062
 11
55
 21
270
  0
LINE
  8
0
 10
55
 20
270
 11
49.9881
 21
270
  0
LINE
  8
0
 10
49.9881
 20
270
 11
49.9881
 21
265.026
  0
LINE
  8
0
 10
49.9881
 20
265.026
 11
49.9182
 21
265.003
  0
LINE
  8
0
 10
49.9182
 20
265.003
 11
45.0432
 21
265.003
  0
LINE
  8
0
 10
45.0432
 20
265.003
 11
45
 21
265.062
  0
LINE
  8
0
 10
45
 20
265.062
 11
45
 21
270
  0
LINE
  8
0
 10
45
 20
270
 11
39.9881
 21
270
  0
LINE
  8
0
 10
39.9881
 20
270
 11
39.9881
 21
265.026
  0
LINE
  8
0
 10
39.9881
 20
265.026
 11
39.9182
 21
265.003
  0
LINE
  8
0
 10
39.9182
 20
265.003
 11
35.0432
 21
265.003
  0
LINE
  8
0
 10
35.0432
 20
265.003
 11
35
 21
265.062
  0
LINE
  8
0
 10
35
 20
265.062
 11
35
 21
270
  0
LINE
  8
0
 10
35
 20
270
 11
29.9881
 21
270
  0
LINE
  8
0
 10
29.9881
 20
270
 11
29.9881
 21
265.026
  0
LINE
  8
0
 10
29.9881
 20
265.026
 11
29.9182
 21
265.003
  0
LINE
  8
0
 10
29.9182
 20
265.003
 11
25.0432
 21
265.003
  0
LINE
  8
0
 10
25.0432
 20
265.003
 11
25
 21
265.062
  0
LINE
  8
0
 10
25
 20
265.062
 11
25
 21
270
  0
LINE
  8
0
 10
25
 20
270
 11
19.9881
 21
270
  0
LINE
  8
0
 10
19.9881
 20
270
 11
19.9881
 21
265.026
  0
LINE
  8
0
 10
19.9881
 20
265.026
 11
19.9182
 21
265.003
  0
LINE
  8
0
 10
19.9182
 20
265.003
 11
15.0432
 21
265.003
  0
LINE
  8
0
 10
15.0432
 20
265.003
 11
15
 21
265.062
  0
LINE
  8
0
 10
15
 20
265.062
 11
15
 21
270
  0
LINE
  8
0
 10
15
 20
270
 11
9.98806
 21
270
  0
LINE
  8
0
 10
9.98806
 20
270
 11
9.98806
 21
265.026
  0
LINE
  8
0
 10
9.98806
 20
265.026
 11
9.91819
 21
265.003
  0
LINE
  8
0
 10
9.91819
 20
265.003
 11
5.0625
 21
265.003
  0
LINE
  8
0
 10
5.0625
 20
265.003
 11
5.0625
 21
265
  0
LINE
  8
0
 10
5.0625
 20
265
 11
0
 21
265
  0
LINE
  8
0
 10
0
 20
265
 11
0
 21
259.89
  0
LINE
  8
0
 10
0
 20
259.89
 11
4.97424
 21
259.89
  0
LINE
  8
0
 10
4.97424
 20
259.89
 11
4.99694
 21
259.82
  0
LINE
  8
0
 10
4.99694
 20
259.82
 11
4.99694
 21
254.847
  0
LINE
  8
0
 10
4.99694
 20
254.847
 11
4.9375
 21
254.804
  0
LINE
  8
0
 10
4.9375
 20
254.804
 11
0
 21
254.804
  0
LINE
  8
0
 10
0
 20
254.804
 11
0
 21
249.694
  0
LINE
  8
0
 10
0
 20
249.694
 11
4.97424
 21
249.694
  0
LINE
  8
0
 10
4.97424
 20
249.694
 11
4.99694
 21
249.624
  0
LINE
  8
0
 10
4.99694
 20
249.624
 11
4.99694
 21
244.651
  0
LINE
  8
0
 10
4.99694
 20
244.651
 11
4.9375
 21
244.608
  0
LINE
  8
0
 10
4.9375
 20
244.608
 11
0
 21
244.608
  0
LINE
  8
0
 10
0
 20
244.608
 11
0
 21
239.498
  0
LINE
  8
0
 10
0
 20
239.498
 11
4.97424
 21
239.498
  0
LINE
  8
0
 10
4.97424
 20
239.498
 11
4.99694
 21
239.428
  0
LINE
  8
0
 10
4.99694
 20
239.428
 11
4.99694
 21
234.455
  0
LINE
  8
0
 10
4.99694
 20
234.455
 11
4.9375
 21
234.412
  0
LINE
  8
0
 10
4.9375
 20
234.412
 11
0
 21
234.412
  0
LINE
  8
0
 10
0
 20
234.412
 11
0
 21
229.302
  0
LINE
  8
0
 10
0
 20
229.302
 11
4.97424
 21
229.302
  0
LINE
  8
0
 10
4.97424
 20
229.302
 11
4.99694
 21
229.232
  0
LINE
  8
0
 10
4.99694
 20
229.232
 11
4.99694
 21
224.259
  0
LINE
  8
0
 10
4.99694
 20
224.259
 11
4.9375
 21
224.216
  0
LINE
  8
0
 10
4.9375
 20
224.216
 11
0
 21
224.216
  0
LINE
  8
0
 10
0
 20
224.216
 11
0
 21
219.106
  0
LINE
  8
0
 10
0
 20
219.106
 11
4.97424
 21
219.106
  0
LINE
  8
0
 10
4.97424
 20
219.106
 11
4.99694
 21
219.036
  0
LINE
  8
0
 10
4.99694
 20
219.036
 11
4.99694
 21
214.063
  0
LINE
  8
0
 10
4.99694
 20
214.063
 11
4.9375
 21
214.02
  0
LINE
  8
0
 10
4.9375
 20
214.02
 11
0
 21
214.02
  0
LINE
  8
0
 10
0
 20
214.02
 11
0
 21
208.91
  0
LINE
  8
0
 10
0
 20
208.91
 11
4.97424
 21
208.91
  0
LINE
  8
0
 10
4.97424
 20
208.91
 11
4.99694
 21
208.84
  0
LINE
  8
0
 10
4.99694
 20
208.84
 11
4.99694
 21
203.867
  0
LINE
  8
0
 10
4.99694
 20
203.867
 11
4.9375
 21
203.824
  0
LINE
  8
0
 10
4.9375
 20
203.824
 11
0
 21
203.824
  0
LINE
  8
0
 10
0
 20
203.824
 11
0
 21
198.714
  0
LINE
  8
0
 10
0
 20
198.714
 11
4.97424
 21
198.714
  0
LINE
  8
0
 10
4.97424
 20
198.714
 11
4.99694
 21
198.644
  0
LINE
  8
0
 10
4.99694
 20
198.644
 11
4.99694
 21
193.671
  0
LINE
  8
0
 10
4.99694
 20
193.671
 11
4.9375
 21
193.627
  0
LINE
  8
0
 10
4.9375
 20
193.627
 11
0
 21
193.627
  0
LINE
  8
0
 10
0
 20
193.627
 11
0
 21
188.517
  0
LINE
  8
0
 10
0
 20
188.517
 11
4.97424
 21
188.517
  0
LINE
  8
0
 10
4.97424
 20
188.517
 11
4.99694
 21
188.448
  0
LINE
  8
0
 10
4.99694
 20
188.448
 11
4.99694
 21
183.475
  0
LINE
  8
0
 10
4.99694
 20
183.475
 11
4.9375
 21
183.431
  0
LINE
  8
0
 10
4.9375
 20
183.431
 11
0
 21
183.431
  0
LINE
  8
0
 10
0
 20
183.431
 11
0
 21
178.321
  0
LINE
  8
0
 10
0
 20
178.321
 11
4.97424
 21
178.321
  0
LINE
  8
0
 10
4.97424
 20
178.321
 11
4.99694
 21
178.252
  0
LINE
  8
0
 10
4.99694
 20
178.252
 11
4.99694
 21
173.278
  0
LINE
  8
0
 10
4.99694
 20
173.278
 11
4.9375
 21
173.235
  0
LINE
  8
0
 10
4.9375
 20
173.235
 11
0
 21
173.235
  0
LINE
  8
0
 10
0
 20
173.235
 11
0
 21
168.125
  0
LINE
  8
0
 10
0
 20
168.125
 11
4.97424
 21
168.125
  0
LINE
  8
0
 10
4.97424
 20
168.125
 11
4.99694
 21
168.055
  0
LINE
  8
0
 10
4.99694
 20
168.055
 11
4.99694
 21
163.082
  0
LINE
  8
0
 10
4.99694
 20
163.082
 11
4.9375
 21
163.039
  0
LINE
  8
0
 10
4.9375
 20
163.039
 11
0
 21
163.039
  0
LINE
  8
0
 10
0
 20
163.039
 11
0
 21
157.929
  0
LINE
  8
0
 10
0
 20
157.929
 11
4.97424
 21
157.929
  0
LINE
  8
0
 10
4.97424
 20
157.929
 11
4.99694
 21
157.859
  0
LINE
  8
0
 10
4.99694
 20
157.859
 11
4.99694
 21
152.886
  0
LINE
  8
0
 10
4.99694
 20
152.886
 11
4.9375
 21
152.843
  0
LINE
  8
0
 10
4.9375
 20
152.843
 11
0
 21
152.843
  0
LINE
  8
0
 10
0
 20
152.843
 11
0
 21
147.733
  0
LINE
  8
0
 10
0
 20
147.733
 11
4.97424
 21
147.733
  0
LINE
  8
0
 10
4.97424
 20
147.733
 11
4.99694
 21
147.663
  0
LINE
  8
0
 10
4.99694
 20
147.663
 11
4.99694
 21
142.69
  0
LINE
  8
0
 10
4.99694
 20
142.69
 11
4.9375
 21
142.647
  0
LINE
  8
0
 10
4.9375
 20
142.647
 11
0
 21
142.647
  0
LINE
  8
0
 10
0
 20
142.647
 11
0
 21
137.537
  0
LINE
  8
0
 10
0
 20
137.537
 11
4.97424
 21
137.537
  0
LINE
  8
0
 10
4.97424
 20
137.537
 11
4.99694
 21
137.467
  0
LINE
  8
0
 10
4.99694
 20
137.467
 11
4.99694
 21
132.494
  0
LINE
  8
0
 10
4.99694
 20
132.494
 11
4.9375
 21
132.451
  0
LINE
  8
0
 10
4.9375
 20
132.451
 11
0
 21
132.451
  0
LINE
  8
0
 10
0
 20
132.451
 11
0
 21
127.341
  0
LINE
  8
0
 10
0
 20
127.341
 11
4.97424
 21
127.341
  0
LINE
  8
0
 10
4.97424
 20
127.341
 11
4.99694
 21
127.271
  0
LINE
  8
0
 10
4.99694
 20
127.271
 11
4.99694
 21
122.298
  0
LINE
  8
0
 10
4.99694
 20
122.298
 11
4.9375
 21
122.255
  0
LINE
  8
0
 10
4.9375
 20
122.255
 11
0
 21
122.255
  0
LINE
  8
0
 10
0
 20
122.255
 11
0
 21
117.145
  0
LINE
  8
0
 10
0
 20
117.145
 11
4.97424
 21
117.145
  0
LINE
  8
0
 10
4.97424
 20
117.145
 11
4.99694
 21
117.075
  0
LINE
  8
0
 10
4.99694
 20
117.075
 11
4.99694
 21
112.102
  0
LINE
  8
0
 10
4.99694
 20
112.102
 11
4.9375
 21
112.059
  0
LINE
  8
0
 10
4.9375
 20
112.059
 11
0
 21
112.059
  0
LINE
  8
0
 10
0
 20
112.059
 11
0
 21
106.949
  0
LINE
  8
0
 10
0
 20
106.949
 11
4.97424
 21
106.949
  0
LINE
  8
0
 10
4.97424
 20
106.949
 11
4.99694
 21
106.879
  0
LINE
  8
0
 10
4.99694
 20
106.879
 11
4.99694
 21
101.906
  0
LINE
  8
0
 10
4.99694
 20
101.906
 11
4.9375
 21
101.863
  0
LINE
  8
0
 10
4.9375
 20
101.863
 11
0
 21
101.863
  0
LINE
  8
0
 10
0
 20
101.863
 11
0
 21
96.7528
  0
LINE
  8
0
 10
0
 20
96.7528
 11
4.97424
 21
96.7528
  0
LINE
  8
0
 10
4.97424
 20
96.7528
 11
4.99694
 21
96.6829
  0
LINE
  8
0
 10
4.99694
 20
96.6829
 11
4.99694
 21
91.7099
  0
LINE
  8
0
 10
4.99694
 20
91.7099
 11
4.9375
 21
91.6667
  0
LINE
  8
0
 10
4.9375
 20
91.6667
 11
0
 21
91.6667
  0
LINE
  8
0
 10
0
 20
91.6667
 11
0
 21
86.5567
  0
LINE
  8
0
 10
0
 20
86.5567
 11
4.97424
 21
86.5567
  0
LINE
  8
0
 10
4.97424
 20
86.5567
 11
4.99694
 21
86.4868
  0
LINE
  8
0
 10
4.99694
 20
86.4868
 11
4.99694
 21
81.5138
  0
LINE
  8
0
 10
4.99694
 20
81.5138
 11
4.9375
 21
81.4706
  0
LINE
  8
0
 10
4.9375
 20
81.4706
 11
0
 21
81.4706
  0
LINE
  8
0
 10
0
 20
81.4706
 11
0
 21
76.3606
  0
LINE
  8
0
 10
0
 20
76.3606
 11
4.97424
 21
76.3606
  0
LINE
  8
0
 10
4.97424
 20
76.3606
 11
4.99694
 21
76.2907
  0
LINE
  8
0
 10
4.99694
 20
76.2907
 11
4.99694
 21
71.3177
  0
LINE
  8
0
 10
4.99694
 20
71.3177
 11
4.9375
 21
71.2745
  0
LINE
  8
0
 10
4.9375
 20
71.2745
 11
0
 21
71.2745
  0
LINE
  8
0
 10
0
 20
71.2745
 11
0
 21
66.1645
  0
LINE
  8
0
 10
0
 20
66.1645
 11
4.97424
 21
66.1645
  0
LINE
  8
0
 10
4.97424
 20
66.1645
 11
4.99694
 21
66.0947
  0
LINE
  8
0
 10
4.99694
 20
66.0947
 11
4.99694
 21
61.1216
  0
LINE
  8
0
 10
4.99694
 20
61.1216
 11
4.9375
 21
61.0784
  0
LINE
  8
0
 10
4.9375
 20
61.0784
 11
0
 21
61.0784
  0
LINE
  8
0
 10
0
 20
61.0784
 11
0
 21
55.9685
  0
LINE
  8
0
 10
0
 20
55.9685
 11
4.97424
 21
55.9685
  0
LINE
  8
0
 10
4.97424
 20
55.9685
 11
4.99694
 21
55.8986
  0
LINE
  8
0
 10
4.99694
 20
55.8986
 11
4.99694
 21
50.9255
  0
LINE
  8
0
 10
4.99694
 20
50.9255
 11
4.9375
 21
50.8824
  0
LINE
  8
0
 10
4.9375
 20
50.8824
 11
0
 21
50.8824
  0
LINE
  8
0
 10
0
 20
50.8824
 11
0
 21
45.7724
  0
LINE
  8
0
 10
0
 20
45.7724
 11
4.97424
 21
45.7724
  0
LINE
  8
0
 10
4.97424
 20
45.7724
 11
4.99694
 21
45.7025
  0
LINE
  8
0
 10
4.99694
 20
45.7025
 11
4.99694
 21
40.7295
  0
LINE
  8
0
 10
4.99694
 20
40.7295
 11
4.9375
 21
40.6863
  0
LINE
  8
0
 10
4.9375
 20
40.6863
 11
0
 21
40.6863
  0
LINE
  8
0
 10
0
 20
40.6863
 11
0
 21
35.5763
  0
LINE
  8
0
 10
0
 20
35.5763
 11
4.97424
 21
35.5763
  0
LINE
  8
0
 10
4.97424
 20
35.5763
 11
4.99694
 21
35.5064
  0
LINE
  8
0
 10
4.99694
 20
35.5064
 11
4.99694
 21
30.5334
  0
LINE
  8
0
 10
4.99694
 20
30.5334
 11
4.9375
 21
30.4902
  0
LINE
  8
0
 10
4.9375
 20
30.4902
 11
0
 21
30.4902
  0
LINE
  8
0
 10
0
 20
30.4902
 11
0
 21
25.3802
  0
LINE
  8
0
 10
0
 20
25.3802
 11
4.97424
 21
25.3802
  0
LINE
  8
0
 10
4.97424
 20
25.3802
 11
4.99694
 21
25.3103
  0
LINE
  8
0
 10
4.99694
 20
25.3103
 11
4.99694
 21
20.3373
  0
LINE
  8
0
 10
4.99694
 20
20.3373
 11
4.9375
 21
20.2941
  0
LINE
  8
0
 10
4.9375
 20
20.2941
 11
0
 21
20.2941
  0
LINE
  8
0
 10
0
 20
20.2941
 11
0
 21
15.1841
  0
LINE
  8
0
 10
0
 20
15.1841
 11
4.97424
 21
15.1841
  0
LINE
  8
0
 10
4.97424
 20
15.1841
 11
4.99694
 21
15.1143
  0
LINE
  8
0
 10
4.99694
 20
15.1143
 11
4.99694
 21
10.1412
  0
LINE
  8
0
 10
4.99694
 20
10.1412
 11
4.9375
 21
10.098
  0
LINE
  8
0
 10
4.9375
 20
10.098
 11
0
 21
10.098
  0
LINE
  8
0
 10
0
 20
10.098
 11
0
 21
5
  0
LINE
  8
0
 10
0
 20
280
 11
10.0119
 21
280
  0
LINE
  8
0
 10
10.0119
 20
280
 11
10.0119
 21
284.974
  0
LINE
  8
0
 10
10.0119
 20
284.974
 11
10.0818
 21
284.997
  0
LINE
  8
0
 10
10.0818
 20
284.997
 11
14.9568
 21
284.997
  0
LINE
  8
0
 10
14.9568
 20
284.997
 11
15
 21
284.938
  0
LINE
  8
0
 10
15
 20
284.938
 11
15
 21
280
  0
LINE
  8
0
 10
15
 20
280
 11
20.0119
 21
280
  0
LINE
  8
0
 10
20.0119
 20
280
 11
20.0119
 21
284.974
  0
LINE
  8
0
 10
20.0119
 20
284.974
 11
20.0818
 21
284.997
  0
LINE
  8
0
 10
20.0818
 20
284.997
 11
24.9568
 21
284.997
  0
LINE
  8
0
 10
24.9568
 20
284.997
 11
25
 21
284.938
  0
LINE
  8
0
 10
25
 20
284.938
 11
25
 21
280
  0
LINE
  8
0
 10
25
 20
280
 11
30.0119
 21
280
  0
LINE
  8
0
 10
30.0119
 20
280
 11
30.0119
 21
284.974
  0
LINE
  8
0
 10
30.0119
 20
284.974
 11
30.0818
 21
284.997
  0
LINE
  8
0
 10
30.0818
 20
284.997
 11
34.9568
 21
284.997
  0
LINE
  8
0
 10
34.9568
 20
284.997
 11
35
 21
284.938
  0
LINE
  8
0
 10
35
 20
284.938
 11
35
 21
280
  0
LINE
  8
0
 10
35
 20
280
 11
40.0119
 21
280
  0
LINE
  8
0
 10
40.0119
 20
280
 11
40.0119
 21
284.974
  0
LINE
  8
0
 10
40.0119
 20
284.974
 11
40.0818
 21
284.997
  0
LINE
  8
0
 10
40.0818
 20
284.997
 11
44.9568
 21
284.997
  0
LINE
  8
0
 10
44.9568
 20
284.997
 11
45
 21
284.938
  0
LINE
  8
0
 10
45
 20
284.938
 11
45
 21
280
  0
LINE
  8
0
 10
45
 20
280
 11
50.0119
 21
280
  0
LINE
  8
0
 10
50.0119
 20
280
 11
50.0119
 21
284.974
  0
LINE
  8
0
 10
50.0119
 20
284.974
 11
50.0818
 21
284.997
  0
LINE
  8
0
 10
50.0818
 20
284.997
 11
54.9568
 21
284.997
  0
LINE
  8
0
 10
54.9568
 20
284.997
 11
55
 21
284.938
  0
LINE
  8
0
 10
55
 20
284.938
 11
55
 21
280
  0
LINE
  8
0
 10
55
 20
280
 11
60.0119
 21
280
  0
LINE
  8
0
 10
60.0119
 20
280
 11
60.0119
 21
284.974
  0
LINE
  8
0
 10
60.0119
 20
284.974
 11
60.0818
 21
284.997
  0
LINE
  8
0
 10
60.0818
 20
284.997
 11
64.9568
 21
284.997
  0
LINE
  8
0
 10
64.9568
 20
284.997
 11
65
 21
284.938
  0
LINE
  8
0
 10
65
 20
284.938
 11
65
 21
280
  0
LINE
  8
0
 10
65
 20
280
 11
70.0119
 21
280
  0
LINE
  8
0
 10
70.0119
 20
280
 11
70.0119
 21
284.974
  0
LINE
  8
0
 10
70.0119
 20
284.974
 11
70.0818
 21
284.997
  0
LINE
  8
0
 10
70.0818
 20
284.997
 11
74.9568
 21
284.997
  0
LINE
  8
0
 10
74.9568
 20
284.997
 11
75
 21
284.938
  0
LINE
  8
0
 10
75
 20
284.938
 11
75
 21
280
  0
LINE
  8
0
 10
75
 20
280
 11
80.0119
 21
280
  0
LINE
  8
0
 10
80.0119
 20
280
 11
80.0119
 21
284.974
  0
LINE
  8
0
 10
80.0119
 20
284.974
 11
80.0818
 21
284.997
  0
LINE
  8
0
 10
80.0818
 20
284.997
 11
84.9568
 21
284.997
  0
LINE
  8
0
 10
84.9568
 20
284.997
 11
85
 21
284.938
  0
LINE
  8
0
 10
85
 20
284.938
 11
85
 21
280
  0
LINE
  8
0
 10
85
 20
280
 11
95
 21
280
  0
LINE
  8
0
 10
95
 20
280
 11
95
 21
285.012
  0
LINE
  8
0
 10
95
 20
285.012
 11
90.0258
 21
285.012
  0
LINE
  8
0
 10
90.0258
 20
285.012
 11
90.0031
 21
285.082
  0
LINE
  8
0
 10
90.0031
 20
285.082
 11
90.0031
 21
289.957
  0
LINE
  8
0
 10
90.0031
 20
289.957
 11
90.0625
 21
290
  0
LINE
  8
0
 10
90.0625
 20
290
 11
95
 21
290
  0
LINE
  8
0
 10
95
 20
290
 11
95
 21
295.012
  0
LINE
  8
0
 10
95
 20
295.012
 11
90.0258
 21
295.012
  0
LINE
  8
0
 10
90.0258
 20
295.012
 11
90.0031
 21
295.082
  0
LINE
  8
0
 10
90.0031
 20
295.082
 11
90.0031
 21
299.957
  0
LINE
  8
0
 10
90.0031
 20
299.957
 11
90.0625
 21
300
  0
LINE
  8
0
 10
90.0625
 20
300
 11
95
 21
300
  0
LINE
  8
0
 10
95
 20
300
 11
95
 21
305.012
  0
LINE
  8
0
 10
95
 20
305.012
 11
90.0258
 21
305.012
  0
LINE
  8
0
 10
90.0258
 20
305.012
 11
90.0031
 21
305.082
  0
LINE
  8
0
 10
90.0031
 20
305.082
 11
90.0031
 21
309.957
  0
LINE
  8
0
 10
90.0031
 20
309.957
 11
90.0625
 21
310
  0
LINE
  8
0
 10
90.0625
 20
310
 11
95
 21
310
  0
LINE
  8
0
 10
95
 20
310
 11
95
 21
315.012
  0
LINE
  8
0
 10
95
 20
315.012
 11
90.0258
 21
315.012
  0
LINE
  8
0
 10
90.0258
 20
315.012
 11
90.0031
 21
315.082
  0
LINE
  8
0
 10
90.0031
 20
315.082
 11
90.0031
 21
319.957
  0
LINE
  8
0
 10
90.0031
 20
319.957
 11
90.0625
 21
320
  0
LINE
  8
0
 10
90.0625
 20
320
 11
95
 21
320
  0
LINE
  8
0
 10
95
 20
320
 11
95
 21
325.012
  0
LINE
  8
0
 10
95
 20
325.012
 11
90.0258
 21
325.012
  0
LINE
  8
0
 10
90.0258
 20
325.012
 11
90.0031
 21
325.082
  0
LINE
  8
0
 10
90.0031
 20
325.082
 11
90.0031
 21
329.957
  0
LINE
  8
0
 10
90.0031
 20
329.957
 11
90.0625
 21
330
  0
LINE
  8
0
 10
90.0625
 20
330
 11
95
 21
330
  0
LINE
  8
0
 10
95
 20
330
 11
95
 21
335.012
  0
LINE
  8
0
 10
95
 20
335.012
 11
90.0258
 21
335.012
  0
LINE
  8
0
 10
90.0258
 20
335.012
 11
90.0031
 21
335.082
  0
LINE
  8
0
 10
90.0031
 20
335.082
 11
90.0031
 21
339.957
  0
LINE
  8
0
 10
90.0031
 20
339.957
 11
90.0625
 21
340
  0
LINE
  8
0
 10
90.0625
 20
340
 11
95
 21
340
  0
LINE
  8
0
 10
95
 20
340
 11
95
 21
345.012
  0
LINE
  8
0
 10
95
 20
345.012
 11
90.0258
 21
345.012
  0
LINE
  8
0
 10
90.0258
 20
345.012
 11
90.0031
 21
345.082
  0
LINE
  8
0
 10
90.0031
 20
345.082
 11
90.0031
 21
349.957
  0
LINE
  8
0
 10
90.0031
 20
349.957
 11
90.0625
 21
350
  0
LINE
  8
0
 10
90.0625
 20
350
 11
95
 21
350
  0
LINE
  8
0
 10
95
 20
350
 11
95
 21
355.012
  0
LINE
  8
0
 10
95
 20
355.012
 11
90.0258
 21
355.012
  0
LINE
  8
0
 10
90.0258
 20
355.012
 11
90.0031
 21
355.082
  0
LINE
  8
0
 10
90.0031
 20
355.082
 11
90.0031
 21
359.957
  0
LINE
  8
0
 10
90.0031
 20
359.957
 11
90.0625
 21
360
  0
LINE
  8
0
 10
90.0625
 20
360
 11
95
 21
360
  0
LINE
  8
0
 10
95
 20
360
 11
95
 21
365.012
  0
LINE
  8
0
 10
95
 20
365.012
 11
90.0258
 21
365.012
  0
LINE
  8
0
 10
90.0258
 20
365.012
 11
90.0031
 21
365.082
  0
LINE
  8
0
 10
90.0031
 20
365.082
 11
90.0031
 21
369.957
  0
LINE
  8
0
 10
90.0031
 20
369.957
 11
90.0625
 21
370
  0
LINE
  8
0
 10
90.0625
 20
370
 11
95
 21
370
  0
LINE
  8
0
 10
95
 20
370
 11
95
 21
375.012
  0
LINE
  8
0
 10
95
 20
375.012
 11
90.0258
 21
375.012
  0
LINE
  8
0
 10
90.0258
 20
375.012
 11
90.0031
 21
375.082
  0
LINE
  8
0
 10
90.0031
 20
375.082
 11
90.0031
 21
379.957
  0
LINE
  8
0
 10
90.0031
 20
379.957
 11
90.0625
 21
380
  0
LINE
  8
0
 10
90.0625
 20
380
 11
95
 21
380
  0
LINE
  8
0
 10
95
 20
380
 11
95
 21
385.012
  0
LINE
  8
0
 10
95
 20
385.012
 11
90.0258
 21
385.012
  0
LINE
  8
0
 10
90.0258
 20
385.012
 11
90.0031
 21
385.082
  0
LINE
  8
0
 10
90.0031
 20
385.082
 11
90.0031
 21
389.957
  0
LINE
  8
0
 10
90.0031
 20
389.957
 11
90.0625
 21
390
  0
LINE
  8
0
 10
90.0625
 20
390
 11
95
 21
390
  0
LINE
  8
0
 10
95
 20
390
 11
95
 21
395.012
  0
LINE
  8
0
 10
95
 20
395.012
 11
90.0258
 21
395.012
  0
LINE
  8
0
 10
90.0258
 20
395.012
 11
90.0031
 21
395.082
  0
LINE
  8
0
 10
90.0031
 20
395.082
 11
90.0031
 21
399.957
  0
LINE
  8
0
 10
90.0031
 20
399.957
 11
90.0625
 21
400
  0
LINE
  8
0
 10
90.0625
 20
400
 11
95
 21
400
  0
LINE
  8
0
 10
95
 20
400
 11
95
 21
405.012
  0
LINE
  8
0
 10
95
 20
405.012
 11
90.0258
 21
405.012
  0
LINE
  8
0
 10
90.0258
 20
405.012
 11
90.0031
 21
405.082
  0
LINE
  8
0
 10
90.0031
 20
405.082
 11
90.0031
 21
409.957
  0
LINE
  8
0
 10
90.0031
 20
409.957
 11
90.0625
 21
410
  0
LINE
  8
0
 10
90.0625
 20
410
 11
95
 21
410
  0
LINE
  8
0
 10
95
 20
410
 11
95
 21
415.012
  0
LINE
  8
0
 10
95
 20
415.012
 11
90.0258
 21
415.012
  0
LINE
  8
0
 10
90.0258
 20
415.012
 11
90.0031
 21
415.082
  0
LINE
  8
0
 10
90.0031
 20
415.082
 11
90.0031
 21
419.957
  0
LINE
  8
0
 10
90.0031
 20
419.957
 11
90.0625
 21
420
  0
LINE
  8
0
 10
90.0625
 20
420
 11
95
 21
420
  0
LINE
  8
0
 10
95
 20
420
 11
95
 21
425.012
  0
LINE
  8
0
 10
95
 20
425.012
 11
90.0258
 21
425.012
  0
LINE
  8
0
 10
90.0258
 20
425.012
 11
90.0031
 21
425.082
  0
LINE
  8
0
 10
90.0031
 20
425.082
 11
90.0031
 21
429.957
  0
LINE
  8
0
 10
90.0031
 20
429.957
 11
90.0625
 21
430
  0
LINE
  8
0
 10
90.0625
 20
430
 11
95
 21
430
  0
LINE
  8
0
 10
95
 20
430
 11
95
 21
435.012
  0
LINE
  8
0
 10
95
 20
435.012
 11
90.0258
 21
435.012
  0
LINE
  8
0
 10
90.0258
 20
435.012
 11
90.0031
 21
435.082
  0
LINE
  8
0
 10
90.0031
 20
435.082
 11
90.0031
 21
439.957
  0
LINE
  8
0
 10
90.0031
 20
439.957
 11
90.0625
 21
440
  0
LINE
  8
0
 10
90.0625
 20
440
 11
95
 21
440
  0
LINE
  8
0
 10
95
 20
440
 11
95
 21
445.012
  0
LINE
  8
0
 10
95
 20
445.012
 11
90.0258
 21
445.012
  0
LINE
  8
0
 10
90.0258
 20
445.012
 11
90.0031
 21
445.082
  0
LINE
  8
0
 10
90.0031
 20
445.082
 11
90.0031
 21
449.957
  0
LINE
  8
0
 10
90.0031
 20
449.957
 11
90.0625
 21
450
  0
LINE
  8
0
 10
90.0625
 20
450
 11
95
 21
450
  0
LINE
  8
0
 10
95
 20
450
 11
95
 21
455.012
  0
LINE
  8
0
 10
95
 20
455.012
 11
90.0258
 21
455.012
  0
LINE
  8
0
 10
90.0258
 20
455.012
 11
90.0031
 21
455.082
  0
LINE
  8
0
 10
90.0031
 20
455.082
 11
90.0031
 21
459.957
  0
LINE
  8
0
 10
90.0031
 20
459.957
 11
90.0625
 21
460
  0
LINE
  8
0
 10
90.0625
 20
460
 11
95
 21
460
  0
LINE
  8
0
 10
95
 20
460
 11
95
 21
465.012
  0
LINE
  8
0
 10
95
 20
465.012
 11
90.0258
 21
465.012
  0
LINE
  8
0
 10
90.0258
 20
465.012
 11
90.0031
 21
465.082
  0
LINE
  8
0
 10
90.0031
 20
465.082
 11
90.0031
 21
469.957
  0
LINE
  8
0
 10
90.0031
 20
469.957
 11
90.0625
 21
470
  0
LINE
  8
0
 10
90.0625
 20
470
 11
95
 21
470
  0
LINE
  8
0
 10
95
 20
470
 11
95
 21
475.012
  0
LINE
  8
0
 10
95
 20
475.012
 11
90.0258
 21
475.012
  0
LINE
  8
0
 10
90.0258
 20
475.012
 11
90.0031
 21
475.082
  0
LINE
  8
0
 10
90.0031
 20
475.082
 11
90.0031
 21
479.957
  0
LINE
  8
0
 10
90.0031
 20
479.957
 11
90.0625
 21
480
  0
LINE
  8
0
 10
90.0625
 20
480
 11
95
 21
480
  0
LINE
  8
0
 10
95
 20
480
 11
95
 21
485.012
  0
LINE
  8
0
 10
95
 20
485.012
 11
90.0258
 21
485.012
  0
LINE
  8
0
 10
90.0258
 20
485.012
 11
90.0031
 21
485.082
  0
LINE
  8
0
 10
90.0031
 20
485.082
 11
90.0031
 21
489.957
  0
LINE
  8
0
 10
90.0031
 20
489.957
 11
90.0625
 21
490
  0
LINE
  8
0
 10
90.0625
 20
490
 11
95
 21
490
  0
LINE
  8
0
 10
95
 20
490
 11
95
 21
495.012
  0
LINE
  8
0
 10
95
 20
495.012
 11
90.0258
 21
495.012
  0
LINE
  8
0
 10
90.0258
 20
495.012
 11
90.0031
 21
495.082
  0
LINE
  8
0
 10
90.0031
 20
495.082
 11
90.0031
 21
499.957
  0
LINE
  8
0
 10
90.0031
 20
499.957
 11
90.0625
 21
500
  0
LINE
  8
0
 10
90.0625
 20
500
 11
95
 21
500
  0
LINE
  8
0
 10
95
 20
500
 11
95
 21
505.012
  0
LINE
  8
0
 10
95
 20
505.012
 11
90.0258
 21
505.012
  0
LINE
  8
0
 10
90.0258
 20
505.012
 11
90.0031
 21
505.082
  0
LINE
  8
0
 10
90.0031
 20
505.082
 11
90.0031
 21
509.957
  0
LINE
  8
0
 10
90.0031
 20
509.957
 11
90.0625
 21
510
  0
LINE
  8
0
 10
90.0625
 20
510
 11
95
 21
510
  0
LINE
  8
0
 10
95
 20
510
 11
95
 21
515.012
  0
LINE
  8
0
 10
95
 20
515.012
 11
90.0258
 21
515.012
  0
LINE
  8
0
 10
90.0258
 20
515.012
 11
90.0031
 21
515.082
  0
LINE
  8
0
 10
90.0031
 20
515.082
 11
90.0031
 21
519.957
  0
LINE
  8
0
 10
90.0031
 20
519.957
 11
90.0625
 21
520
  0
LINE
  8
0
 10
90.0625
 20
520
 11
95
 21
520
  0
LINE
  8
0
 10
95
 20
520
 11
95
 21
525.012
  0
LINE
  8
0
 10
95
 20
525.012
 11
90.0258
 21
525.012
  0
LINE
  8
0
 10
90.0258
 20
525.012
 11
90.0031
 21
525.082
  0
LINE
  8
0
 10
90.0031
 20
525.082
 11
90.0031
 21
529.957
  0
LINE
  8
0
 10
90.0031
 20
529.957
 11
90.0625
 21
530
  0
LINE
  8
0
 10
90.0625
 20
530
 11
95
 21
530
  0
LINE
  8
0
 10
95
 20
530
 11
95
 21
535.012
  0
LINE
  8
0
 10
95
 20
535.012
 11
90.0258
 21
535.012
  0
LINE
  8
0
 10
90.0258
 20
535.012
 11
90.0031
 21
535.082
  0
LINE
  8
0
 10
90.0031
 20
535.082
 11
90.0031
 21
539.957
  0
LINE
  8
0
 10
90.0031
 20
539.957
 11
90.0625
 21
540
  0
LINE
  8
0
 10
90.0625
 20
540
 11
95
 21
540
  0
LINE
  8
0
 10
95
 20
540
 11
95
 21
545.012
  0
LINE
  8
0
 10
95
 20
545.012
 11
90.0258
 21
545.012
  0
LINE
  8
0
 10
90.0258
 20
545.012
 11
90.0031
 21
545.082
  0
LINE
  8
0
 10
90.0031
 20
545.082
 11
90.0031
 21
549.957
  0
LINE
  8
0
 10
90.0031
 20
549.957
 11
90.0625
 21
550
  0
LINE
  8
0
 10
90.0625
 20
550
 11
95
 21
550
  0
LINE
  8
0
 10
95
 20
550
 11
95
 21
555.012
  0
LINE
  8
0
 10
95
 20
555.012
 11
90.0258
 21
555.012
  0
LINE
  8
0
 10
90.0258
 20
555.012
 11
90.0031
 21
555.082
  0
LINE
  8
0
 10
90.0031
 20
555.082
 11
90.0031
 21
559.957
  0
LINE
  8
0
 10
90.0031
 20
559.957
 11
90.0625
 21
560
  0
LINE
  8
0
 10
90.0625
 20
560
 11
95
 21
560
  0
LINE
  8
0
 10
95
 20
560
 11
95
 21
565.012
  0
LINE
  8
0
 10
95
 20
565.012
 11
90.0258
 21
565.012
  0
LINE
  8
0
 10
90.0258
 20
565.012
 11
90.0031
 21
565.082
  0
LINE
  8
0
 10
90.0031
 20
565.082
 11
90.0031
 21
569.957
  0
LINE
  8
0
 10
90.0031
 20
569.957
 11
90.0625
 21
570
  0
LINE
  8
0
 10
90.0625
 20
570
 11
95
 21
570
  0
LINE
  8
0
 10
95
 20
570
 11
95
 21
575.012
  0
LINE
  8
0
 10
95
 20
575.012
 11
90.0258
 21
575.012
  0
LINE
  8
0
 10
90.0258
 20
575.012
 11
90.0031
 21
575.082
  0
LINE
  8
0
 10
90.0031
 20
575.082
 11
90.0031
 21
579.957
  0
LINE
  8
0
 10
90.0031
 20
579.957
 11
90.0625
 21
580
  0
LINE
  8
0
 10
90.0625
 20
580
 11
95
 21
580
  0
LINE
  8
0
 10
95
 20
580
 11
95
 21
585.012
  0
LINE
  8
0
 10
95
 20
585.012
 11
90.0258
 21
585.012
  0
LINE
  8
0
 10
90.0258
 20
585.012
 11
90.0031
 21
585.082
  0
LINE
  8
0
 10
90.0031
 20
585.082
 11
90.0031
 21
589.957
  0
LINE
  8
0
 10
90.0031
 20
589.957
 11
90.0625
 21
590
  0
LINE
  8
0
 10
90.0625
 20
590
 11
95
 21
590
  0
LINE
  8
0
 10
95
 20
590
 11
95
 21
595
  0
LINE
  8
0
 10
95
 20
595
 11
0
 21
595
  0
LINE
  8
0
 10
0
 20
595
 11
0
 21
589.988
  0
LINE
  8
0
 10
0
 20
589.988
 11
4.97424
 21
589.988
  0
LINE
  8
0
 10
4.97424
 20
589.988
 11
4.99694
 21
589.918
  0
LINE
  8
0
 10
4.99694
 20
589.918
 11
4.99694
 21
585.043
  0
LINE
  8
0
 10
4.99694
 20
585.043
 11
4.9375
 21
585
  0
LINE
  8
0
 10
4.9375
 20
585
 11
0
 21
585
  0
LINE
  8
0
 10
0
 20
585
 11
0
 21
579.988
  0
LINE
  8
0
 10
0
 20
579.988
 11
4.97424
 21
579.988
  0
LINE
  8
0
 10
4.97424
 20
579.988
 11
4.99694
 21
579.918
  0
LINE
  8
0
 10
4.99694
 20
579.918
 11
4.99694
 21
575.043
  0
LINE
  8
0
 10
4.99694
 20
575.043
 11
4.9375
 21
575
  0
LINE
  8
0
 10
4.9375
 20
575
 11
0
 21
575
  0
LINE
  8
0
 10
0
 20
575
 11
0
 21
569.988
  0
LINE
  8
0
 10
0
 20
569.988
 11
4.97424
 21
569.988
  0
LINE
  8
0
 10
4.97424
 20
569.988
 11
4.99694
 21
569.918
  0
LINE
  8
0
 10
4.99694
 20
569.918
 11
4.99694
 21
565.043
  0
LINE
  8
0
 10
4.99694
 20
565.043
 11
4.9375
 21
565
  0
LINE
  8
0
 10
4.9375
 20
565
 11
0
 21
565
  0
LINE
  8
0
 10
0
 20
565
 11
0
 21
559.988
  0
LINE
  8
0
 10
0
 20
559.988
 11
4.97424
 21
559.988
  0
LINE
  8
0
 10
4.97424
 20
559.988
 11
4.99694
 21
559.918
  0
LINE
  8
0
 10
4.99694
 20
559.918
 11
4.99694
 21
555.043
  0
LINE
  8
0
 10
4.99694
 20
555.043
 11
4.9375
 21
555
  0
LINE
  8
0
 10
4.9375
 20
555
 11
0
 21
555
  0
LINE
  8
0
 10
0
 20
555
 11
0
 21
549.988
  0
LINE
  8
0
 10
0
 20
549.988
 11
4.97424
 21
549.988
  0
LINE
  8
0
 10
4.97424
 20
549.988
 11
4.99694
 21
549.918
  0
LINE
  8
0
 10
4.99694
 20
549.918
 11
4.99694
 21
545.043
  0
LINE
  8
0
 10
4.99694
 20
545.043
 11
4.9375
 21
545
  0
LINE
  8
0
 10
4.9375
 20
545
 11
0
 21
545
  0
LINE
  8
0
 10
0
 20
545
 11
0
 21
539.988
  0
LINE
  8
0
 10
0
 20
539.988
 11
4.97424
 21
539.988
  0
LINE
  8
0
 10
4.97424
 20
539.988
 11
4.99694
 21
539.918
  0
LINE
  8
0
 10
4.99694
 20
539.918
 11
4.99694
 21
535.043
  0
LINE
  8
0
 10
4.99694
 20
535.043
 11
4.9375
 21
535
  0
LINE
  8
0
 10
4.9375
 20
535
 11
0
 21
535
  0
LINE
  8
0
 10
0
 20
535
 11
0
 21
529.988
  0
LINE
  8
0
 10
0
 20
529.988
 11
4.97424
 21
529.988
  0
LINE
  8
0
 10
4.97424
 20
529.988
 11
4.99694
 21
529.918
  0
LINE
  8
0
 10
4.99694
 20
529.918
 11
4.99694
 21
525.043
  0
LINE
  8
0
 10
4.99694
 20
525.043
 11
4.9375
 21
525
  0
LINE
  8
0
 10
4.9375
 20
525
 11
0
 21
525
  0
LINE
  8
0
 10
0
 20
525
 11
0
 21
519.988
  0
LINE
  8
0
 10
0
 20
519.988
 11
4.97424
 21
519.988
  0
LINE
  8
0
 10
4.97424
 20
519.988
 11
4.99694
 21
519.918
  0
LINE
  8
0
 10
4.99694
 20
519.918
 11
4.99694
 21
515.043
  0
LINE
  8
0
 10
4.99694
 20
515.043
 11
4.9375
 21
515
  0
LINE
  8
0
 10
4.9375
 20
515
 11
0
 21
515
  0
LINE
  8
0
 10
0
 20
515
 11
0
 21
509.988
  0
LINE
  8
0
 10
0
 20
509.988
 11
4.97424
 21
509.988
  0
LINE
  8
0
 10
4.97424
 20
509.988
 11
4.99694
 21
509.918
  0
LINE
  8
0
 10
4.99694
 20
509.918
 11
4.99694
 21
505.043
  0
LINE
  8
0
 10
4.99694
 20
505.043
 11
4.9375
 21
505
  0
LINE
  8
0
 10
4.9375
 20
505
 11
0
 21
505
  0
LINE
  8
0
 10
0
 20
505
 11
0
 21
499.988
  0
LINE
  8
0
 10
0
 20
499.988
 11
4.97424
 21
499.988
  0
LINE
  8
0
 10
4.97424
 20
499.988
 11
4.99694
 21
499.918
  0
LINE
  8
0
 10
4.99694
 20
499.918
 11
4.99694
 21
495.043
  0
LINE
  8
0
 10
4.99694
 20
495.043
 11
4.9375
 21
495
  0
LINE
  8
0
 10
4.9375
 20
495
 11
0
 21
495
  0
LINE
  8
0
 10
0
 20
495
 11
0
 21
489.988
  0
LINE
  8
0
 10
0
 20
489.988
 11
4.97424
 21
489.988
  0
LINE
  8
0
 10
4.97424
 20
489.988
 11
4.99694
 21
489.918
  0
LINE
  8
0
 10
4.99694
 20
489.918
 11
4.99694
 21
485.043
  0
LINE
  8
0
 10
4.99694
 20
485.043
 11
4.9375
 21
485
  0
LINE
  8
0
 10
4.9375
 20
485
 11
0
 21
485
  0
LINE
  8
0
 10
0
 20
485
 11
0
 21
479.988
  0
LINE
  8
0
 10
0
 20
479.988
 11
4.97424
 21
479.988
  0
LINE
  8
0
 10
4.97424
 20
479.988
 11
4.99694
 21
479.918
  0
LINE
  8
0
 10
4.99694
 20
479.918
 11
4.99694
 21
475.043
  0
LINE
  8
0
 10
4.99694
 20
475.043
 11
4.9375
 21
475
  0
LINE
  8
0
 10
4.9375
 20
475
 11
0
 21
475
  0
LINE
  8
0
 10
0
 20
475
 11
0
 21
469.988
  0
LINE
  8
0
 10
0
 20
469.988
 11
4.97424
 21
469.988
  0
LINE
  8
0
 10
4.97424
 20
469.988
 11
4.99694
 21
469.918
  0
LINE
  8
0
 10
4.99694
 20
469.918
 11
4.99694
 21
465.043
  0
LINE
  8
0
 10
4.99694
 20
465.043
 11
4.9375
 21
465
  0
LINE
  8
0
 10
4.9375
 20
465
 11
0
 21
465
  0
LINE
  8
0
 10
0
 20
465
 11
0
 21
459.988
  0
LINE
  8
0
 10
0
 20
459.988
 11
4.97424
 21
459.988
  0
LINE
  8
0
 10
4.97424
 20
459.988
 11
4.99694
 21
459.918
  0
LINE
  8
0
 10
4.99694
 20
459.918
 11
4.99694
 21
455.043
  0
LINE
  8
0
 10
4.99694
 20
455.043
 11
4.9375
 21
455
  0
LINE
  8
0
 10
4.9375
 20
455
 11
0
 21
455
  0
LINE
  8
0
 10
0
 20
455
 11
0
 21
449.988
  0
LINE
  8
0
 10
0
 20
449.988
 11
4.97424
 21
449.988
  0
LINE
  8
0
 10
4.97424
 20
449.988
 11
4.99694
 21
449.918
  0
LINE
  8
0
 10
4.99694
 20
449.918
 11
4.99694
 21
445.043
  0
LINE
  8
0
 10
4.99694
 20
445.043
 11
4.9375
 21
445
  0
LINE
  8
0
 10
4.9375
 20
445
 11
0
 21
445
  0
LINE
  8
0
 10
0
 20
445
 11
0
 21
439.988
  0
LINE
  8
0
 10
0
 20
439.988
 11
4.97424
 21
439.988
  0
LINE
  8
0
 10
4.97424
 20
439.988
 11
4.99694
 21
439.918
  0
LINE
  8
0
 10
4.99694
 20
439.918
 11
4.99694
 21
435.043
  0
LINE
  8
0
 10
4.99694
 20
435.043
 11
4.9375
 21
435
  0
LINE
  8
0
 10
4.9375
 20
435
 11
0
 21
435
  0
LINE
  8
0
 10
0
 20
435
 11
0
 21
429.988
  0
LINE
  8
0
 10
0
 20
429.988
 11
4.97424
 21
429.988
  0
LINE
  8
0
 10
4.97424
 20
429.988
 11
4.99694
 21
429.918
  0
LINE
  8
0
 10
4.99694
 20
429.918
 11
4.99694
 21
425.043
  0
LINE
  8
0
 10
4.99694
 20
425.043
 11
4.9375
 21
425
  0
LINE
  8
0
 10
4.9375
 20
425
 11
0
 21
425
  0
LINE
  8
0
 10
0
 20
425
 11
0
 21
419.988
  0
LINE
  8
0
 10
0
 20
419.988
 11
4.97424
 21
419.988
  0
LINE
  8
0
 10
4.97424
 20
419.988
 11
4.99694
 21
419.918
  0
LINE
  8
0
 10
4.99694
 20
419.918
 11
4.99694
 21
415.043
  0
LINE
  8
0
 10
4.99694
 20
415.043
 11
4.9375
 21
415
  0
LINE
  8
0
 10
4.9375
 20
415
 11
0
 21
415
  0
LINE
  8
0
 10
0
 20
415
 11
0
 21
409.988
  0
LINE
  8
0
 10
0
 20
409.988
 11
4.97424
 21
409.988
  0
LINE
  8
0
 10
4.97424
 20
409.988
 11
4.99694
 21
409.918
  0
LINE
  8
0
 10
4.99694
 20
409.918
 11
4.99694
 21
405.043
  0
LINE
  8
0
 10
4.99694
 20
405.043
 11
4.9375
 21
405
  0
LINE
  8
0
 10
4.9375
 20
405
 11
0
 21
405
  0
LINE
  8
0
 10
0
 20
405
 11
0
 21
399.988
  0
LINE
  8
0
 10
0
 20
399.988
 11
4.97424
 21
399.988
  0
LINE
  8
0
 10
4.97424
 20
399.988
 11
4.99694
 21
399.918
  0
LINE
  8
0
 10
4.99694
 20
399.918
 11
4.99694
 21
395.043
  0
LINE
  8
0
 10
4.99694
 20
395.043
 11
4.9375
 21
395
  0
LINE
  8
0
 10
4.9375
 20
395
 11
0
 21
395
  0
LINE
  8
0
 10
0
 20
395
 11
0
 21
389.988
  0
LINE
  8
0
 10
0
 20
389.988
 11
4.97424
 21
389.988
  0
LINE
  8
0
 10
4.97424
 20
389.988
 11
4.99694
 21
389.918
  0
LINE
  8
0
 10
4.99694
 20
389.918
 11
4.99694
 21
385.043
  0
LINE
  8
0
 10
4.99694
 20
385.043
 11
4.9375
 21
385
  0
LINE
  8
0
 10
4.9375
 20
385
 11
0
 21
385
  0
LINE
  8
0
 10
0
 20
385
 11
0
 21
379.988
  0
LINE
  8
0
 10
0
 20
379.988
 11
4.97424
 21
379.988
  0
LINE
  8
0
 10
4.97424
 20
379.988
 11
4.99694
 21
379.918
  0
LINE
  8
0
 10
4.99694
 20
379.918
 11
4.99694
 21
375.043
  0
LINE
  8
0
 10
4.99694
 20
375.043
 11
4.9375
 21
375
  0
LINE
  8
0
 10
4.9375
 20
375
 11
0
 21
375
  0
LINE
  8
0
 10
0
 20
375
 11
0
 21
369.988
  0
LINE
  8
0
 10
0
 20
369.988
 11
4.97424
 21
369.988
  0
LINE
  8
0
 10
4.97424
 20
369.988
 11
4.99694
 21
369.918
  0
LINE
  8
0
 10
4.99694
 20
369.918
 11
4.99694
 21
365.043
  0
LINE
  8
0
 10
4.99694
 20
365.043
 11
4.9375
 21
365
  0
LINE
  8
0
 10
4.9375
 20
365
 11
0
 21
365
  0
LINE
  8
0
 10
0
 20
365
 11
0
 21
359.988
  0
LINE
  8
0
 10
0
 20
359.988
 11
4.97424
 21
359.988
  0
LINE
  8
0
 10
4.97424
 20
359.988
 11
4.99694
 21
359.918
  0
LINE
  8
0
 10
4.99694
 20
359.918
 11
4.99694
 21
355.043
  0
LINE
  8
0
 10
4.99694
 20
355.043
 11
4.9375
 21
355
  0
LINE
  8
0
 10
4.9375
 20
355
 11
0
 21
355
  0
LINE
  8
0
 10
0
 20
355
 11
0
 21
349.988
  0
LINE
  8
0
 10
0
 20
349.988
 11
4.97424
 21
349.988
  0
LINE
  8
0
 10
4.97424
 20
349.988
 11
4.99694
 21
349.918
  0
LINE
  8
0
 10
4.99694
 20
349.918
 11
4.99694
 21
345.043
  0
LINE
  8
0
 10
4.99694
 20
345.043
 11
4.9375
 21
345
  0
LINE
  8
0
 10
4.9375
 20
345
 11
0
 21
345
  0
LINE
  8
0
 10
0
 20
345
 11
0
 21
339.988
  0
LINE
  8
0
 10
0
 20
339.988
 11
4.97424
 21
339.988
  0
LINE
  8
0
 10
4.97424
 20
339.988
 11
4.99694
 21
339.918
  0
LINE
  8
0
 10
4.99694
 20
339.918
 11
4.99694
 21
335.043
  0
LINE
  8
0
 10
4.99694
 20
335.043
 11
4.9375
 21
335
  0
LINE
  8
0
 10
4.9375
 20
335
 11
0
 21
335
  0
LINE
  8
0
 10
0
 20
335
 11
0
 21
329.988
  0
LINE
  8
0
 10
0
 20
329.988
 11
4.97424
 21
329.988
  0
LINE
  8
0
 10
4.97424
 20
329.988
 11
4.99694
 21
329.918
  0
LINE
  8
0
 10
4.99694
 20
329.918
 11
4.99694
 21
325.043
  0
LINE
  8
0
 10
4.99694
 20
325.043
 11
4.9375
 21
325
  0
LINE
  8
0
 10
4.9375
 20
325
 11
0
 21
325
  0
LINE
  8
0
 10
0
 20
325
 11
0
 21
319.988
  0
LINE
  8
0
 10
0
 20
319.988
 11
4.97424
 21
319.988
  0
LINE
  8
0
 10
4.97424
 20
319.988
 11
4.99694
 21
319.918
  0
LINE
  8
0
 10
4.99694
 20
319.918
 11
4.99694
 21
315.043
  0
LINE
  8
0
 10
4.99694
 20
315.043
 11
4.9375
 21
315
  0
LINE
  8
0
 10
4.9375
 20
315
 11
0
 21
315
  0
LINE
  8
0
 10
0
 20
315
 11
0
 21
309.988
  0
LINE
  8
0
 10
0
 20
309.988
 11
4.97424
 21
309.988
  0
LINE
  8
0
 10
4.97424
 20
309.988
 11
4.99694
 21
309.918
  0
LINE
  8
0
 10
4.99694
 20
309.918
 11
4.99694
 21
305.043
  0
LINE
  8
0
 10
4.99694
 20
305.043
 11
4.9375
 21
305
  0
LINE
  8
0
 10
4.9375
 20
305
 11
0
 21
305
  0
LINE
  8
0
 10
0
 20
305
 11
0
 21
299.988
  0
LINE
  8
0
 10
0
 20
299.988
 11
4.97424
 21
299.988
  0
LINE
  8
0
 10
4.97424
 20
299.988
 11
4.99694
 21
299.918
  0
LINE
  8
0
 10
4.99694
 20
299.918
 11
4.99694
 21
295.043
  0
LINE
  8
0
 10
4.99694
 20
295.043
 11
4.9375
 21
295
  0
LINE
  8
0
 10
4.9375
 20
295
 11
0
 21
295
  0
LINE
  8
0
 10
0
 20
295
 11
0
 21
289.988
  0
LINE
  8
0
 10
0
 20
289.988
 11
4.97424
 21
289.988
  0
LINE
  8
0
 10
4.97424
 20
289.988
 11
4.99694
 21
289.918
  0
LINE
  8
0
 10
4.99694
 20
289.918
 11
4.99694
 21
285.043
  0
LINE
  8
0
 10
4.99694
 20
285.043
 11
4.9375
 21
285
  0
LINE
  8
0
 10
4.9375
 20
285
 11
0
 21
285
  0
LINE
  8
0
 10
0
 20
285
 11
0
 21
280
  0
LINE
  8
0
 10
105
 20
0
 11
105
 21
0
  0
LINE
  8
0
 10
105
 20
0
 11
105
 21
5
  0
LINE
  8
0
 10
105
 20
5
 11
105
 21
5
  0
LINE
  8
0
 10
105
 20
5
 11
105
 21
0
  0
LINE
  8
0
 10
105
 20
10.098
 11
109.938
 21
10.098
  0
LINE
  8
0
 10
109.938
 20
10.098
 11
109.997
 21
10.0549
  0
LINE
  8
0
 10
109.997
 20
10.0549
 11
109.997
 21
5.08181
  0
LINE
  8
0
 10
109.997
 20
5.08181
 11
109.991
 21
5.0625
  0
LINE
  8
0
 10
109.991
 20
5.0625
 11
110
 21
5.0625
  0
LINE
  8
0
 10
110
 20
5.0625
 11
110
 21
5
  0
LINE
  8
0
 10
110
 20
5
 11
105.063
 21
5
  0
LINE
  8
0
 10
105.063
 20
5
 11
105.063
 21
4.99694
  0
LINE
  8
0
 10
105.063
 20
4.99694
 11
109.771
 21
4.99694
  0
LINE
  8
0
 10
109.771
 20
4.99694
 11
109.841
 21
4.97424
  0
LINE
  8
0
 10
109.841
 20
4.97424
 11
109.841
 21
0
  0
LINE
  8
0
 10
109.841
 20
0
 11
114.706
 21
0
  0
LINE
  8
0
 10
114.706
 20
0
 11
114.706
 21
4.9375
  0
LINE
  8
0
 10
114.706
 20
4.9375
 11
114.749
 21
4.99694
  0
LINE
  8
0
 10
114.749
 20
4.99694
 11
119.477
 21
4.99694
  0
LINE
  8
0
 10
119.477
 20
4.99694
 11
119.547
 21
4.97424
  0
LINE
  8
0
 10
119.547
 20
4.97424
 11
119.547
 21
0
  0
LINE
  8
0
 10
119.547
 20
0
 11
124.412
 21
0
  0
LINE
  8
0
 10
124.412
 20
0
 11
124.412
 21
4.9375
  0
LINE
  8
0
 10
124.412
 20
4.9375
 11
124.455
 21
4.99694
  0
LINE
  8
0
 10
124.455
 20
4.99694
 11
129.183
 21
4.99694
  0
LINE
  8
0
 10
129.183
 20
4.99694
 11
129.253
 21
4.97424
  0
LINE
  8
0
 10
129.253
 20
4.97424
 11
129.253
 21
0
  0
LINE
  8
0
 10
129.253
 20
0
 11
134.118
 21
0
  0
LINE
  8
0
 10
134.118
 20
0
 11
134.118
 21
4.9375
  0
LINE
  8
0
 10
134.118
 20
4.9375
 11
134.161
 21
4.99694
  0
LINE
  8
0
 10
134.161
 20
4.99694
 11
138.889
 21
4.99694
  0
LINE
  8
0
 10
138.889
 20
4.99694
 11
138.959
 21
4.97424
  0
LINE
  8
0
 10
138.959
 20
4.97424
 11
138.959
 21
0
  0
LINE
  8
0
 10
138.959
 20
0
 11
143.824
 21
0
  0
LINE
  8
0
 10
143.824
 20
0
 11
143.824
 21
4.9375
  0
LINE
  8
0
 10
143.824
 20
4.9375
 11
143.867
 21
4.99694
  0
LINE
  8
0
 10
143.867
 20
4.99694
 11
148.595
 21
4.99694
  0
LINE
  8
0
 10
148.595
 20
4.99694
 11
148.665
 21
4.97424
  0
LINE
  8
0
 10
148.665
 20
4.97424
 11
148.665
 21
0
  0
LINE
  8
0
 10
148.665
 20
0
 11
153.529
 21
0
  0
LINE
  8
0
 10
153.529
 20
0
 11
153.529
 21
4.9375
  0
LINE
  8
0
 10
153.529
 20
4.9375
 11
153.573
 21
4.99694
  0
LINE
  8
0
 10
153.573
 20
4.99694
 11
158.301
 21
4.99694
  0
LINE
  8
0
 10
158.301
 20
4.99694
 11
158.37
 21
4.97424
  0
LINE
  8
0
 10
158.37
 20
4.97424
 11
158.37
 21
0
  0
LINE
  8
0
 10
158.37
 20
0
 11
163.235
 21
0
  0
LINE
  8
0
 10
163.235
 20
0
 11
163.235
 21
4.9375
  0
LINE
  8
0
 10
163.235
 20
4.9375
 11
163.278
 21
4.99694
  0
LINE
  8
0
 10
163.278
 20
4.99694
 11
168.006
 21
4.99694
  0
LINE
  8
0
 10
168.006
 20
4.99694
 11
168.076
 21
4.97424
  0
LINE
  8
0
 10
168.076
 20
4.97424
 11
168.076
 21
0
  0
LINE
  8
0
 10
168.076
 20
0
 11
172.941
 21
0
  0
LINE
  8
0
 10
172.941
 20
0
 11
172.941
 21
4.9375
  0
LINE
  8
0
 10
172.941
 20
4.9375
 11
172.984
 21
4.99694
  0
LINE
  8
0
 10
172.984
 20
4.99694
 11
177.712
 21
4.99694
  0
LINE
  8
0
 10
177.712
 20
4.99694
 11
177.782
 21
4.97424
  0
LINE
  8
0
 10
177.782
 20
4.97424
 11
177.782
 21
0
  0
LINE
  8
0
 10
177.782
 20
0
 11
182.5
 21
0
  0
LINE
  8
0
 10
182.5
 20
0
 11
182.647
 21
0.131563
  0
LINE
  8
0
 10
182.647
 20
0.131563
 11
182.647
 21
4.9375
  0
LINE
  8
0
 10
182.647
 20
4.9375
 11
182.69
 21
4.99694
  0
LINE
  8
0
 10
182.69
 20
4.99694
 11
187.418
 21
4.99694
  0
LINE
  8
0
 10
187.418
 20
4.99694
 11
187.438
 21
4.99067
  0
LINE
  8
0
 10
187.438
 20
4.99067
 11
187.438
 21
5
  0
LINE
  8
0
 10
187.438
 20
5
 11
188.089
 21
5
  0
LINE
  8
0
 10
188.089
 20
5
 11
420
 21
212.473
  0
LINE
  8
0
 10
420
 20
212.473
 11
420
 21
265
  0
LINE
  8
0
 10
420
 20
265
 11
419.938
 21
265
  0
LINE
  8
0
 10
419.938
 20
265
 11
419.938
 21
265.003
  0
LINE
  8
0
 10
419.938
 20
265.003
 11
415.082
 21
265.003
  0
LINE
  8
0
 10
415.082
 20
265.003
 11
415.012
 21
265.026
  0
LINE
  8
0
 10
415.012
 20
265.026
 11
415.012
 21
270
  0
LINE
  8
0
 10
415.012
 20
270
 11
410
 21
270
  0
LINE
  8
0
 10
410
 20
270
 11
410
 21
265.062
  0
LINE
  8
0
 10
410
 20
265.062
 11
409.957
 21
265.003
  0
LINE
  8
0
 10
409.957
 20
265.003
 11
405.082
 21
265.003
  0
LINE
  8
0
 10
405.082
 20
265.003
 11
405.012
 21
265.026
  0
LINE
  8
0
 10
405.012
 20
265.026
 11
405.012
 21
270
  0
LINE
  8
0
 10
405.012
 20
270
 11
400
 21
270
  0
LINE
  8
0
 10
400
 20
270
 11
400
 21
265.062
  0
LINE
  8
0
 10
400
 20
265.062
 11
399.957
 21
265.003
  0
LINE
  8
0
 10
399.957
 20
265.003
 11
395.082
 21
265.003
  0
LINE
  8
0
 10
395.082
 20
265.003
 11
395.012
 21
265.026
  0
LINE
  8
0
 10
395.012
 20
265.026
 11
395.012
 21
270
  0
LINE
  8
0
 10
395.012
 20
270
 11
390
 21
270
  0
LINE
  8
0
 10
390
 20
270
 11
390
 21
265.062
  0
LINE
  8
0
 10
390
 20
265.062
 11
389.957
 21
265.003
  0
LINE
  8
0
 10
389.957
 20
265.003
 11
385.082
 21
265.003
  0
LINE
  8
0
 10
385.082
 20
265.003
 11
385.012
 21
265.026
  0
LINE
  8
0
 10
385.012
 20
265.026
 11
385.012
 21
270
  0
LINE
  8
0
 10
385.012
 20
270
 11
380
 21
270
  0
LINE
  8
0
 10
380
 20
270
 11
380
 21
265.062
  0
LINE
  8
0
 10
380
 20
265.062
 11
379.957
 21
265.003
  0
LINE
  8
0
 10
379.957
 20
265.003
 11
375.082
 21
265.003
  0
LINE
  8
0
 10
375.082
 20
265.003
 11
375.012
 21
265.026
  0
LINE
  8
0
 10
375.012
 20
265.026
 11
375.012
 21
270
  0
LINE
  8
0
 10
375.012
 20
270
 11
370
 21
270
  0
LINE
  8
0
 10
370
 20
270
 11
370
 21
265.062
  0
LINE
  8
0
 10
370
 20
265.062
 11
369.957
 21
265.003
  0
LINE
  8
0
 10
369.957
 20
265.003
 11
365.082
 21
265.003
  0
LINE
  8
0
 10
365.082
 20
265.003
 11
365.012
 21
265.026
  0
LINE
  8
0
 10
365.012
 20
265.026
 11
365.012
 21
270
  0
LINE
  8
0
 10
365.012
 20
270
 11
360
 21
270
  0
LINE
  8
0
 10
360
 20
270
 11
360
 21
265.062
  0
LINE
  8
0
 10
360
 20
265.062
 11
359.957
 21
265.003
  0
LINE
  8
0
 10
359.957
 20
265.003
 11
355.082
 21
265.003
  0
LINE
  8
0
 10
355.082
 20
265.003
 11
355.012
 21
265.026
  0
LINE
  8
0
 10
355.012
 20
265.026
 11
355.012
 21
270
  0
LINE
  8
0
 10
355.012
 20
270
 11
350
 21
270
  0
LINE
  8
0
 10
350
 20
270
 11
350
 21
265.062
  0
LINE
  8
0
 10
350
 20
265.062
 11
349.957
 21
265.003
  0
LINE
  8
0
 10
349.957
 20
265.003
 11
345.082
 21
265.003
  0
LINE
  8
0
 10
345.082
 20
265.003
 11
345.012
 21
265.026
  0
LINE
  8
0
 10
345.012
 20
265.026
 11
345.012
 21
270
  0
LINE
  8
0
 10
345.012
 20
270
 11
340
 21
270
  0
LINE
  8
0
 10
340
 20
270
 11
340
 21
265.062
  0
LINE
  8
0
 10
340
 20
265.062
 11
339.957
 21
265.003
  0
LINE
  8
0
 10
339.957
 20
265.003
 11
335.082
 21
265.003
  0
LINE
  8
0
 10
335.082
 20
265.003
 11
335.012
 21
265.026
  0
LINE
  8
0
 10
335.012
 20
265.026
 11
335.012
 21
270
  0
LINE
  8
0
 10
335.012
 20
270
 11
330
 21
270
  0
LINE
  8
0
 10
330
 20
270
 11
330
 21
265.062
  0
LINE
  8
0
 10
330
 20
265.062
 11
329.957
 21
265.003
  0
LINE
  8
0
 10
329.957
 20
265.003
 11
325.082
 21
265.003
  0
LINE
  8
0
 10
325.082
 20
265.003
 11
325.012
 21
265.026
  0
LINE
  8
0
 10
325.012
 20
265.026
 11
325.012
 21
270
  0
LINE
  8
0
 10
325.012
 20
270
 11
320
 21
270
  0
LINE
  8
0
 10
320
 20
270
 11
320
 21
265.062
  0
LINE
  8
0
 10
320
 20
265.062
 11
319.957
 21
265.003
  0
LINE
  8
0
 10
319.957
 20
265.003
 11
315.082
 21
265.003
  0
LINE
  8
0
 10
315.082
 20
265.003
 11
315.012
 21
265.026
  0
LINE
  8
0
 10
315.012
 20
265.026
 11
315.012
 21
270
  0
LINE
  8
0
 10
315.012
 20
270
 11
310
 21
270
  0
LINE
  8
0
 10
310
 20
270
 11
310
 21
265.062
  0
LINE
  8
0
 10
310
 20
265.062
 11
309.957
 21
265.003
  0
LINE
  8
0
 10
309.957
 20
265.003
 11
305.082
 21
265.003
  0
LINE
  8
0
 10
305.082
 20
265.003
 11
305.012
 21
265.026
  0
LINE
  8
0
 10
305.012
 20
265.026
 11
305.012
 21
270
  0
LINE
  8
0
 10
305.012
 20
270
 11
300
 21
270
  0
LINE
  8
0
 10
300
 20
270
 11
300
 21
265.062
  0
LINE
  8
0
 10
300
 20
265.062
 11
299.957
 21
265.003
  0
LINE
  8
0
 10
299.957
 20
265.003
 11
295.082
 21
265.003
  0
LINE
  8
0
 10
295.082
 20
265.003
 11
295.012
 21
265.026
  0
LINE
  8
0
 10
295.012
 20
265.026
 11
295.012
 21
270
  0
LINE
  8
0
 10
295.012
 20
270
 11
290
 21
270
  0
LINE
  8
0
 10
290
 20
270
 11
290
 21
265.062
  0
LINE
  8
0
 10
290
 20
265.062
 11
289.957
 21
265.003
  0
LINE
  8
0
 10
289.957
 20
265.003
 11
285.082
 21
265.003
  0
LINE
  8
0
 10
285.082
 20
265.003
 11
285.012
 21
265.026
  0
LINE
  8
0
 10
285.012
 20
265.026
 11
285.012
 21
270
  0
LINE
  8
0
 10
285.012
 20
270
 11
280
 21
270
  0
LINE
  8
0
 10
280
 20
270
 11
280
 21
265.062
  0
LINE
  8
0
 10
280
 20
265.062
 11
279.957
 21
265.003
  0
LINE
  8
0
 10
279.957
 20
265.003
 11
275.082
 21
265.003
  0
LINE
  8
0
 10
275.082
 20
265.003
 11
275.012
 21
265.026
  0
LINE
  8
0
 10
275.012
 20
265.026
 11
275.012
 21
270
  0
LINE
  8
0
 10
275.012
 20
270
 11
270
 21
270
  0
LINE
  8
0
 10
270
 20
270
 11
270
 21
265.062
  0
LINE
  8
0
 10
270
 20
265.062
 11
269.957
 21
265.003
  0
LINE
  8
0
 10
269.957
 20
265.003
 11
265.082
 21
265.003
  0
LINE
  8
0
 10
265.082
 20
265.003
 11
265.012
 21
265.026
  0
LINE
  8
0
 10
265.012
 20
265.026
 11
265.012
 21
270
  0
LINE
  8
0
 10
265.012
 20
270
 11
260
 21
270
  0
LINE
  8
0
 10
260
 20
270
 11
260
 21
265.062
  0
LINE
  8
0
 10
260
 20
265.062
 11
259.957
 21
265.003
  0
LINE
  8
0
 10
259.957
 20
265.003
 11
255.082
 21
265.003
  0
LINE
  8
0
 10
255.082
 20
265.003
 11
255.012
 21
265.026
  0
LINE
  8
0
 10
255.012
 20
265.026
 11
255.012
 21
270
  0
LINE
  8
0
 10
255.012
 20
270
 11
250
 21
270
  0
LINE
  8
0
 10
250
 20
270
 11
250
 21
265.062
  0
LINE
  8
0
 10
250
 20
265.062
 11
249.957
 21
265.003
  0
LINE
  8
0
 10
249.957
 20
265.003
 11
245.082
 21
265.003
  0
LINE
  8
0
 10
245.082
 20
265.003
 11
245.012
 21
265.026
  0
LINE
  8
0
 10
245.012
 20
265.026
 11
245.012
 21
270
  0
LINE
  8
0
 10
245.012
 20
270
 11
240
 21
270
  0
LINE
  8
0
 10
240
 20
270
 11
240
 21
265.062
  0
LINE
  8
0
 10
240
 20
265.062
 11
239.957
 21
265.003
  0
LINE
  8
0
 10
239.957
 20
265.003
 11
235.082
 21
265.003
  0
LINE
  8
0
 10
235.082
 20
265.003
 11
235.012
 21
265.026
  0
LINE
  8
0
 10
235.012
 20
265.026
 11
235.012
 21
270
  0
LINE
  8
0
 10
235.012
 20
270
 11
230
 21
270
  0
LINE
  8
0
 10
230
 20
270
 11
230
 21
265.062
  0
LINE
  8
0
 10
230
 20
265.062
 11
229.957
 21
265.003
  0
LINE
  8
0
 10
229.957
 20
265.003
 11
225.082
 21
265.003
  0
LINE
  8
0
 10
225.082
 20
265.003
 11
225.012
 21
265.026
  0
LINE
  8
0
 10
225.012
 20
265.026
 11
225.012
 21
270
  0
LINE
  8
0
 10
225.012
 20
270
 11
220
 21
270
  0
LINE
  8
0
 10
220
 20
270
 11
220
 21
265.062
  0
LINE
  8
0
 10
220
 20
265.062
 11
219.957
 21
265.003
  0
LINE
  8
0
 10
219.957
 20
265.003
 11
215.082
 21
265.003
  0
LINE
  8
0
 10
215.082
 20
265.003
 11
215.012
 21
265.026
  0
LINE
  8
0
 10
215.012
 20
265.026
 11
215.012
 21
270
  0
LINE
  8
0
 10
215.012
 20
270
 11
210
 21
270
  0
LINE
  8
0
 10
210
 20
270
 11
210
 21
265.062
  0
LINE
  8
0
 10
210
 20
265.062
 11
209.957
 21
265.003
  0
LINE
  8
0
 10
209.957
 20
265.003
 11
205.082
 21
265.003
  0
LINE
  8
0
 10
205.082
 20
265.003
 11
205.012
 21
265.026
  0
LINE
  8
0
 10
205.012
 20
265.026
 11
205.012
 21
270
  0
LINE
  8
0
 10
205.012
 20
270
 11
200
 21
270
  0
LINE
  8
0
 10
200
 20
270
 11
200
 21
265.062
  0
LINE
  8
0
 10
200
 20
265.062
 11
199.957
 21
265.003
  0
LINE
  8
0
 10
199.957
 20
265.003
 11
195.082
 21
265.003
  0
LINE
  8
0
 10
195.082
 20
265.003
 11
195.012
 21
265.026
  0
LINE
  8
0
 10
195.012
 20
265.026
 11
195.012
 21
270
  0
LINE
  8
0
 10
195.012
 20
270
 11
190
 21
270
  0
LINE
  8
0
 10
190
 20
270
 11
190
 21
265.062
  0
LINE
  8
0
 10
190
 20
265.062
 11
189.957
 21
265.003
  0
LINE
  8
0
 10
189.957
 20
265.003
 11
185.082
 21
265.003
  0
LINE
  8
0
 10
185.082
 20
265.003
 11
185.012
 21
265.026
  0
LINE
  8
0
 10
185.012
 20
265.026
 11
185.012
 21
270
  0
LINE
  8
0
 10
185.012
 20
270
 11
180
 21
270
  0
LINE
  8
0
 10
180
 20
270
 11
180
 21
265.062
  0
LINE
  8
0
 10
180
 20
265.062
 11
179.957
 21
265.003
  0
LINE
  8
0
 10
179.957
 20
265.003
 11
175.082
 21
265.003
  0
LINE
  8
0
 10
175.082
 20
265.003
 11
175.012
 21
265.026
  0
LINE
  8
0
 10
175.012
 20
265.026
 11
175.012
 21
270
  0
LINE
  8
0
 10
175.012
 20
270
 11
170
 21
270
  0
LINE
  8
0
 10
170
 20
270
 11
170
 21
265.062
  0
LINE
  8
0
 10
170
 20
265.062
 11
169.957
 21
265.003
  0
LINE
  8
0
 10
169.957
 20
265.003
 11
165.082
 21
265.003
  0
LINE
  8
0
 10
165.082
 20
265.003
 11
165.012
 21
265.026
  0
LINE
  8
0
 10
165.012
 20
265.026
 11
165.012
 21
270
  0
LINE
  8
0
 10
165.012
 20
270
 11
160
 21
270
  0
LINE
  8
0
 10
160
 20
270
 11
160
 21
265.062
  0
LINE
  8
0
 10
160
 20
265.062
 11
159.957
 21
265.003
  0
LINE
  8
0
 10
159.957
 20
265.003
 11
155.082
 21
265.003
  0
LINE
  8
0
 10
155.082
 20
265.003
 11
155.012
 21
265.026
  0
LINE
  8
0
 10
155.012
 20
265.026
 11
155.012
 21
270
  0
LINE
  8
0
 10
155.012
 20
270
 11
150
 21
270
  0
LINE
  8
0
 10
150
 20
270
 11
150
 21
265.062
  0
LINE
  8
0
 10
150
 20
265.062
 11
149.957
 21
265.003
  0
LINE
  8
0
 10
149.957
 20
265.003
 11
145.082
 21
265.003
  0
LINE
  8
0
 10
145.082
 20
265.003
 11
145.012
 21
265.026
  0
LINE
  8
0
 10
145.012
 20
265.026
 11
145.012
 21
270
  0
LINE
  8
0
 10
145.012
 20
270
 11
140
 21
270
  0
LINE
  8
0
 10
140
 20
270
 11
140
 21
265.062
  0
LINE
  8
0
 10
140
 20
265.062
 11
139.957
 21
265.003
  0
LINE
  8
0
 10
139.957
 20
265.003
 11
135.082
 21
265.003
  0
LINE
  8
0
 10
135.082
 20
265.003
 11
135.012
 21
265.026
  0
LINE
  8
0
 10
135.012
 20
265.026
 11
135.012
 21
270
  0
LINE
  8
0
 10
135.012
 20
270
 11
130
 21
270
  0
LINE
  8
0
 10
130
 20
270
 11
130
 21
265.062
  0
LINE
  8
0
 10
130
 20
265.062
 11
129.957
 21
265.003
  0
LINE
  8
0
 10
129.957
 20
265.003
 11
125.082
 21
265.003
  0
LINE
  8
0
 10
125.082
 20
265.003
 11
125.012
 21
265.026
  0
LINE
  8
0
 10
125.012
 20
265.026
 11
125.012
 21
270
  0
LINE
  8
0
 10
125.012
 20
270
 11
120
 21
270
  0
LINE
  8
0
 10
120
 20
270
 11
120
 21
265.062
  0
LINE
  8
0
 10
120
 20
265.062
 11
119.957
 21
265.003
  0
LINE
  8
0
 10
119.957
 20
265.003
 11
115.082
 21
265.003
  0
LINE
  8
0
 10
115.082
 20
265.003
 11
115.012
 21
265.026
  0
LINE
  8
0
 10
115.012
 20
265.026
 11
115.012
 21
270
  0
LINE
  8
0
 10
115.012
 20
270
 11
110
 21
270
  0
LINE
  8
0
 10
110
 20
270
 11
110
 21
265.062
  0
LINE
  8
0
 10
110
 20
265.062
 11
109.957
 21
265.003
  0
LINE
  8
0
 10
109.957
 20
265.003
 11
105.082
 21
265.003
  0
LINE
  8
0
 10
105.082
 20
265.003
 11
105.062
 21
265.009
  0
LINE
  8
0
 10
105.062
 20
265.009
 11
105.062
 21
265
  0
LINE
  8
0
 10
105.062
 20
265
 11
105
 21
265
  0
LINE
  8
0
 10
105
 20
265
 11
105
 21
265
  0
LINE
  8
0
 10
105
 20
265
 11
110
 21
265
  0
LINE
  8
0
 10
110
 20
265
 11
110
 21
264.937
  0
LINE
  8
0
 10
110
 20
264.937
 11
109.997
 21
264.937
  0
LINE
  8
0
 10
109.997
 20
264.937
 11
109.997
 21
259.984
  0
LINE
  8
0
 10
109.997
 20
259.984
 11
109.974
 21
259.914
  0
LINE
  8
0
 10
109.974
 20
259.914
 11
105
 21
259.914
  0
LINE
  8
0
 10
105
 20
259.914
 11
105
 21
254.804
  0
LINE
  8
0
 10
105
 20
254.804
 11
109.938
 21
254.804
  0
LINE
  8
0
 10
109.938
 20
254.804
 11
109.997
 21
254.761
  0
LINE
  8
0
 10
109.997
 20
254.761
 11
109.997
 21
249.788
  0
LINE
  8
0
 10
109.997
 20
249.788
 11
109.974
 21
249.718
  0
LINE
  8
0
 10
109.974
 20
249.718
 11
105
 21
249.718
  0
LINE
  8
0
 10
105
 20
249.718
 11
105
 21
244.608
  0
LINE
  8
0
 10
105
 20
244.608
 11
109.938
 21
244.608
  0
LINE
  8
0
 10
109.938
 20
244.608
 11
109.997
 21
244.565
  0
LINE
  8
0
 10
109.997
 20
244.565
 11
109.997
 21
239.592
  0
LINE
  8
0
 10
109.997
 20
239.592
 11
109.974
 21
239.522
  0
LINE
  8
0
 10
109.974
 20
239.522
 11
105
 21
239.522
  0
LINE
  8
0
 10
105
 20
239.522
 11
105
 21
234.412
  0
LINE
  8
0
 10
105
 20
234.412
 11
109.938
 21
234.412
  0
LINE
  8
0
 10
109.938
 20
234.412
 11
109.997
 21
234.369
  0
LINE
  8
0
 10
109.997
 20
234.369
 11
109.997
 21
229.396
  0
LINE
  8
0
 10
109.997
 20
229.396
 11
109.974
 21
229.326
  0
LINE
  8
0
 10
109.974
 20
229.326
 11
105
 21
229.326
  0
LINE
  8
0
 10
105
 20
229.326
 11
105
 21
224.216
  0
LINE
  8
0
 10
105
 20
224.216
 11
109.938
 21
224.216
  0
LINE
  8
0
 10
109.938
 20
224.216
 11
109.997
 21
224.172
  0
LINE
  8
0
 10
109.997
 20
224.172
 11
109.997
 21
219.199
  0
LINE
  8
0
 10
109.997
 20
219.199
 11
109.974
 21
219.13
  0
LINE
  8
0
 10
109.974
 20
219.13
 11
105
 21
219.13
  0
LINE
  8
0
 10
105
 20
219.13
 11
105
 21
214.02
  0
LINE
  8
0
 10
105
 20
214.02
 11
109.938
 21
214.02
  0
LINE
  8
0
 10
109.938
 20
214.02
 11
109.997
 21
213.976
  0
LINE
  8
0
 10
109.997
 20
213.976
 11
109.997
 21
209.003
  0
LINE
  8
0
 10
109.997
 20
209.003
 11
109.974
 21
208.934
  0
LINE
  8
0
 10
109.974
 20
208.934
 11
105
 21
208.934
  0
LINE
  8
0
 10
105
 20
208.934
 11
105
 21
203.824
  0
LINE
  8
0
 10
105
 20
203.824
 11
109.938
 21
203.824
  0
LINE
  8
0
 10
109.938
 20
203.824
 11
109.997
 21
203.78
  0
LINE
  8
0
 10
109.997
 20
203.78
 11
109.997
 21
198.807
  0
LINE
  8
0
 10
109.997
 20
198.807
 11
109.974
 21
198.737
  0
LINE
  8
0
 10
109.974
 20
198.737
 11
105
 21
198.737
  0
LINE
  8
0
 10
105
 20
198.737
 11
105
 21
193.627
  0
LINE
  8
0
 10
105
 20
193.627
 11
109.938
 21
193.627
  0
LINE
  8
0
 10
109.938
 20
193.627
 11
109.997
 21
193.584
  0
LINE
  8
0
 10
109.997
 20
193.584
 11
109.997
 21
188.611
  0
LINE
  8
0
 10
109.997
 20
188.611
 11
109.974
 21
188.541
  0
LINE
  8
0
 10
109.974
 20
188.541
 11
105
 21
188.541
  0
LINE
  8
0
 10
105
 20
188.541
 11
105
 21
183.431
  0
LINE
  8
0
 10
105
 20
183.431
 11
109.938
 21
183.431
  0
LINE
  8
0
 10
109.938
 20
183.431
 11
109.997
 21
183.388
  0
LINE
  8
0
 10
109.997
 20
183.388
 11
109.997
 21
178.415
  0
LINE
  8
0
 10
109.997
 20
178.415
 11
109.974
 21
178.345
  0
LINE
  8
0
 10
109.974
 20
178.345
 11
105
 21
178.345
  0
LINE
  8
0
 10
105
 20
178.345
 11
105
 21
173.235
  0
LINE
  8
0
 10
105
 20
173.235
 11
109.938
 21
173.235
  0
LINE
  8
0
 10
109.938
 20
173.235
 11
109.997
 21
173.192
  0
LINE
  8
0
 10
109.997
 20
173.192
 11
109.997
 21
168.219
  0
LINE
  8
0
 10
109.997
 20
168.219
 11
109.974
 21
168.149
  0
LINE
  8
0
 10
109.974
 20
168.149
 11
105
 21
168.149
  0
LINE
  8
0
 10
105
 20
168.149
 11
105
 21
163.039
  0
LINE
  8
0
 10
105
 20
163.039
 11
109.938
 21
163.039
  0
LINE
  8
0
 10
109.938
 20
163.039
 11
109.997
 21
162.996
  0
LINE
  8
0
 10
109.997
 20
162.996
 11
109.997
 21
158.023
  0
LINE
  8
0
 10
109.997
 20
158.023
 11
109.974
 21
157.953
  0
LINE
  8
0
 10
109.974
 20
157.953
 11
105
 21
157.953
  0
LINE
  8
0
 10
105
 20
157.953
 11
105
 21
152.843
  0
LINE
  8
0
 10
105
 20
152.843
 11
109.938
 21
152.843
  0
LINE
  8
0
 10
109.938
 20
152.843
 11
109.997
 21
152.8
  0
LINE
  8
0
 10
109.997
 20
152.8
 11
109.997
 21
147.827
  0
LINE
  8
0
 10
109.997
 20
147.827
 11
109.974
 21
147.757
  0
LINE
  8
0
 10
109.974
 20
147.757
 11
105
 21
147.757
  0
LINE
  8
0
 10
105
 20
147.757
 11
105
 21
142.647
  0
LINE
  8
0
 10
105
 20
142.647
 11
109.938
 21
142.647
  0
LINE
  8
0
 10
109.938
 20
142.647
 11
109.997
 21
142.604
  0
LINE
  8
0
 10
109.997
 20
142.604
 11
109.997
 21
137.631
  0
LINE
  8
0
 10
109.997
 20
137.631
 11
109.974
 21
137.561
  0
LINE
  8
0
 10
109.974
 20
137.561
 11
105
 21
137.561
  0
LINE
  8
0
 10
105
 20
137.561
 11
105
 21
132.451
  0
LINE
  8
0
 10
105
 20
132.451
 11
109.938
 21
132.451
  0
LINE
  8
0
 10
109.938
 20
132.451
 11
109.997
 21
132.408
  0
LINE
  8
0
 10
109.997
 20
132.408
 11
109.997
 21
127.435
  0
LINE
  8
0
 10
109.997
 20
127.435
 11
109.974
 21
127.365
  0
LINE
  8
0
 10
109.974
 20
127.365
 11
105
 21
127.365
  0
LINE
  8
0
 10
105
 20
127.365
 11
105
 21
122.255
  0
LINE
  8
0
 10
105
 20
122.255
 11
109.938
 21
122.255
  0
LINE
  8
0
 10
109.938
 20
122.255
 11
109.997
 21
122.212
  0
LINE
  8
0
 10
109.997
 20
122.212
 11
109.997
 21
117.239
  0
LINE
  8
0
 10
109.997
 20
117.239
 11
109.974
 21
117.169
  0
LINE
  8
0
 10
109.974
 20
117.169
 11
105
 21
117.169
  0
LINE
  8
0
 10
105
 20
117.169
 11
105
 21
112.059
  0
LINE
  8
0
 10
105
 20
112.059
 11
109.938
 21
112.059
  0
LINE
  8
0
 10
109.938
 20
112.059
 11
109.997
 21
112.016
  0
LINE
  8
0
 10
109.997
 20
112.016
 11
109.997
 21
107.043
  0
LINE
  8
0
 10
109.997
 20
107.043
 11
109.974
 21
106.973
  0
LINE
  8
0
 10
109.974
 20
106.973
 11
105
 21
106.973
  0
LINE
  8
0
 10
105
 20
106.973
 11
105
 21
101.863
  0
LINE
  8
0
 10
105
 20
101.863
 11
109.938
 21
101.863
  0
LINE
  8
0
 10
109.938
 20
101.863
 11
109.997
 21
101.82
  0
LINE
  8
0
 10
109.997
 20
101.82
 11
109.997
 21
96.8465
  0
LINE
  8
0
 10
109.997
 20
96.8465
 11
109.974
 21
96.7766
  0
LINE
  8
0
 10
109.974
 20
96.7766
 11
105
 21
96.7766
  0
LINE
  8
0
 10
105
 20
96.7766
 11
105
 21
91.6667
  0
LINE
  8
0
 10
105
 20
91.6667
 11
109.938
 21
91.6667
  0
LINE
  8
0
 10
109.938
 20
91.6667
 11
109.997
 21
91.6235
  0
LINE
  8
0
 10
109.997
 20
91.6235
 11
109.997
 21
86.6504
  0
LINE
  8
0
 10
109.997
 20
86.6504
 11
109.974
 21
86.5806
  0
LINE
  8
0
 10
109.974
 20
86.5806
 11
105
 21
86.5806
  0
LINE
  8
0
 10
105
 20
86.5806
 11
105
 21
81.4706
  0
LINE
  8
0
 10
105
 20
81.4706
 11
109.938
 21
81.4706
  0
LINE
  8
0
 10
109.938
 20
81.4706
 11
109.997
 21
81.4274
  0
LINE
  8
0
 10
109.997
 20
81.4274
 11
109.997
 21
76.4544
  0
LINE
  8
0
 10
109.997
 20
76.4544
 11
109.974
 21
76.3845
  0
LINE
  8
0
 10
109.974
 20
76.3845
 11
105
 21
76.3845
  0
LINE
  8
0
 10
105
 20
76.3845
 11
105
 21
71.2745
  0
LINE
  8
0
 10
105
 20
71.2745
 11
109.938
 21
71.2745
  0
LINE
  8
0
 10
109.938
 20
71.2745
 11
109.997
 21
71.2313
  0
LINE
  8
0
 10
109.997
 20
71.2313
 11
109.997
 21
66.2583
  0
LINE
  8
0
 10
109.997
 20
66.2583
 11
109.974
 21
66.1884
  0
LINE
  8
0
 10
109.974
 20
66.1884
 11
105
 21
66.1884
  0
LINE
  8
0
 10
105
 20
66.1884
 11
105
 21
61.0784
  0
LINE
  8
0
 10
105
 20
61.0784
 11
109.938
 21
61.0784
  0
LINE
  8
0
 10
109.938
 20
61.0784
 11
109.997
 21
61.0352
  0
LINE
  8
0
 10
109.997
 20
61.0352
 11
109.997
 21
56.0622
  0
LINE
  8
0
 10
109.997
 20
56.0622
 11
109.974
 21
55.9923
  0
LINE
  8
0
 10
109.974
 20
55.9923
 11
105
 21
55.9923
  0
LINE
  8
0
 10
105
 20
55.9923
 11
105
 21
50.8824
  0
LINE
  8
0
 10
105
 20
50.8824
 11
109.938
 21
50.8824
  0
LINE
  8
0
 10
109.938
 20
50.8824
 11
109.997
 21
50.8392
  0
LINE
  8
0
 10
109.997
 20
50.8392
 11
109.997
 21
45.8661
  0
LINE
  8
0
 10
109.997
 20
45.8661
 11
109.974
 21
45.7962
  0
LINE
  8
0
 10
109.974
 20
45.7962
 11
105
 21
45.7962
  0
LINE
  8
0
 10
105
 20
45.7962
 11
105
 21
40.6863
  0
LINE
  8
0
 10
105
 20
40.6863
 11
109.938
 21
40.6863
  0
LINE
  8
0
 10
109.938
 20
40.6863
 11
109.997
 21
40.6431
  0
LINE
  8
0
 10
109.997
 20
40.6431
 11
109.997
 21
35.67
  0
LINE
  8
0
 10
109.997
 20
35.67
 11
109.974
 21
35.6002
  0
LINE
  8
0
 10
109.974
 20
35.6002
 11
105
 21
35.6002
  0
LINE
  8
0
 10
105
 20
35.6002
 11
105
 21
30.4902
  0
LINE
  8
0
 10
105
 20
30.4902
 11
109.938
 21
30.4902
  0
LINE
  8
0
 10
109.938
 20
30.4902
 11
109.997
 21
30.447
  0
LINE
  8
0
 10
109.997
 20
30.447
 11
109.997
 21
25.474
  0
LINE
  8
0
 10
109.997
 20
25.474
 11
109.974
 21
25.4041
  0
LINE
  8
0
 10
109.974
 20
25.4041
 11
105
 21
25.4041
  0
LINE
  8
0
 10
105
 20
25.4041
 11
105
 21
20.2941
  0
LINE
  8
0
 10
105
 20
20.2941
 11
109.938
 21
20.2941
  0
LINE
  8
0
 10
109.938
 20
20.2941
 11
109.997
 21
20.2509
  0
LINE
  8
0
 10
109.997
 20
20.2509
 11
109.997
 21
15.2779
  0
LINE
  8
0
 10
109.997
 20
15.2779
 11
109.974
 21
15.208
  0
LINE
  8
0
 10
109.974
 20
15.208
 11
105
 21
15.208
  0
LINE
  8
0
 10
105
 20
15.208
 11
105
 21
10.098
  0
ENDSEC
  0
SECTION
  2
OBJECTS
  0
DICTIONARY
  0
ENDSEC
  0
EOF
