<?xml version="1.0"?>
<!-- Created by MetaPost 2.00 on 2019.06.02:1722 -->
<svg version="1.1" xmlns="http://www.w3.org/2000/svg" xmlns:xlink="http://www.w3.org/1999/xlink" width="611.998901" height="206.999634" viewBox="0 0 611.998901 206.999634">
<!-- Original BoundingBox: -8.999985 -8.999985 602.998917 197.999649 -->
  <path d="M-0.999985 188.000000C-0.999649 192.773788,0.896881 197.351959,4.272461 200.727539C7.648041 204.103119,12.226212 205.999649,17.000000 205.999985L592.998932 205.999985C597.772720 205.999649,602.350891 204.103119,605.726471 200.727539C609.102051 197.351959,610.998581 192.773788,610.998917 188.000000L610.998917 17.000336C610.998581 12.226547,609.102051 7.648376,605.726471 4.272797C602.350891 0.897217,597.772720 -0.999313,592.998932 -0.999649L17.000000 -0.999649C12.226212 -0.999313,7.648041 0.897217,4.272461 4.272797C0.896881 7.648376,-0.999649 12.226547,-0.999985 17.000336Z" style="fill: rgb(0.000000%,0.000000%,0.000000%);stroke: none;"></path>
  <path d="M8.000000 179.000015C8.000336 183.773804,9.896866 188.351974,13.272446 191.727554C16.648026 195.103134,21.226196 196.999664,25.999985 197.000000L583.998947 197.000000C588.772736 196.999664,593.350906 195.103134,596.726486 191.727554C600.102066 188.351974,601.998596 183.773804,601.998932 179.000015L601.998932 26.000320C601.998596 21.226532,600.102066 16.648361,596.726486 13.272781C593.350906 9.897202,588.772736 8.000671,583.998947 8.000336L25.999985 8.000336C21.226196 8.000671,16.648026 9.897202,13.272446 13.272781C9.896866 16.648361,8.000336 21.226532,8.000000 26.000320Z" style="fill: rgb(100.000000%,100.000000%,100.000000%);stroke: none;"></path>
  <path d="M8.000000 179.000015C8.000336 183.773804,9.896866 188.351974,13.272446 191.727554C16.648026 195.103134,21.226196 196.999664,25.999985 197.000000L583.998947 197.000000C588.772736 196.999664,593.350906 195.103134,596.726486 191.727554C600.102066 188.351974,601.998596 183.773804,601.998932 179.000015L601.998932 26.000320C601.998596 21.226532,600.102066 16.648361,596.726486 13.272781C593.350906 9.897202,588.772736 8.000671,583.998947 8.000336L25.999985 8.000336C21.226196 8.000671,16.648026 9.897202,13.272446 13.272781C9.896866 16.648361,8.000336 21.226532,8.000000 26.000320Z" style="fill: rgb(66.667175%,66.667175%,66.667175%);stroke: none;"></path>
  <path d="M17.014175 174.485855C17.014435 178.066193,18.436829 181.499817,20.968506 184.031494C23.500183 186.563171,26.933807 187.985565,30.514145 187.985825L579.484818 187.985825C583.065155 187.985565,586.498779 186.563171,589.030457 184.031494C591.562134 181.499817,592.984528 178.066193,592.984787 174.485855L592.984787 30.514450C592.984528 26.934113,591.562134 23.500488,589.030457 20.968811C586.498779 18.437134,583.065155 17.014740,579.484818 17.014481L30.514145 17.014481C26.933807 17.014740,23.500183 18.437134,20.968506 20.968811C18.436829 23.500488,17.014435 26.934113,17.014175 30.514450Z" style="fill: rgb(100.000000%,100.000000%,100.000000%);stroke: none;"></path>
  <path d="M25.999969 170.000031C26.000137 172.386932,26.948410 174.676010,28.636200 176.363800C30.323990 178.051590,32.613068 178.999863,34.999969 179.000031L574.998932 179.000031C577.385834 178.999863,579.674911 178.051590,581.362701 176.363800C583.050491 174.676010,583.998764 172.386932,583.998932 170.000031L583.998932 116.000183C583.998764 113.613281,583.050491 111.324203,581.362701 109.636414C579.674911 107.948624,577.385834 107.000351,574.998932 107.000183L34.999969 107.000183C32.613068 107.000351,30.323990 107.948624,28.636200 109.636414C26.948410 111.324203,26.000137 113.613281,25.999969 116.000183Z" style="fill: rgb(50.000000%,50.000000%,50.000000%);stroke: none;"></path>
  <path d="M25.999969 89.000198C26.000137 91.387100,26.948410 93.676178,28.636200 95.363968C30.323990 97.051758,32.613068 98.000031,34.999969 98.000198L196.999649 98.000198C199.386551 98.000031,201.675629 97.051758,203.363419 95.363968C205.051208 93.676178,205.999481 91.387100,205.999649 89.000198L205.999649 35.000351C205.999481 32.613449,205.051208 30.324371,203.363419 28.636581C201.675629 26.948792,199.386551 26.000519,196.999649 26.000351L34.999969 26.000351C32.613068 26.000519,30.323990 26.948792,28.636200 28.636581C26.948410 30.324371,26.000137 32.613449,25.999969 35.000351Z" style="fill: rgb(50.000000%,50.000000%,50.000000%);stroke: none;"></path>
  <path d="M214.999634 89.000198C214.999802 91.387100,215.948074 93.676178,217.635864 95.363968C219.323654 97.051758,221.612732 98.000031,223.999634 98.000198L385.999313 98.000198C388.386215 98.000031,390.675293 97.051758,392.363083 95.363968C394.050873 93.676178,394.999146 91.387100,394.999313 89.000198L394.999313 35.000351C394.999146 32.613449,394.050873 30.324371,392.363083 28.636581C390.675293 26.948792,388.386215 26.000519,385.999313 26.000351L223.999634 26.000351C221.612732 26.000519,219.323654 26.948792,217.635864 28.636581C215.948074 30.324371,214.999802 32.613449,214.999634 35.000351Z" style="fill: rgb(50.000000%,50.000000%,50.000000%);stroke: none;"></path>
  <path d="M25.999969 170.000031C26.000137 172.386932,26.948410 174.676010,28.636200 176.363800C30.323990 178.051590,32.613068 178.999863,34.999969 179.000031L574.998932 179.000031C577.385834 178.999863,579.674911 178.051590,581.362701 176.363800C583.050491 174.676010,583.998764 172.386932,583.998932 170.000031L583.998932 116.000183C583.998764 113.613281,583.050491 111.324203,581.362701 109.636414C579.674911 107.948624,577.385834 107.000351,574.998932 107.000183L34.999969 107.000183C32.613068 107.000351,30.323990 107.948624,28.636200 109.636414C26.948410 111.324203,26.000137 113.613281,25.999969 116.000183Z" style="fill: rgb(50.000000%,50.000000%,50.000000%);stroke: none;"></path>
  <path d="M403.999298 89.000198C403.999466 91.387100,404.947739 93.676178,406.635529 95.363968C408.323318 97.051758,410.612396 98.000031,412.999298 98.000198L574.998978 98.000198C577.385880 98.000031,579.674957 97.051758,581.362747 95.363968C583.050537 93.676178,583.998810 91.387100,583.998978 89.000198L583.998978 35.000351C583.998810 32.613449,583.050537 30.324371,581.362747 28.636581C579.674957 26.948792,577.385880 26.000519,574.998978 26.000351L412.999298 26.000351C410.612396 26.000519,408.323318 26.948792,406.635529 28.636581C404.947739 30.324371,403.999466 32.613449,403.999298 35.000351Z" style="fill: rgb(50.000000%,50.000000%,50.000000%);stroke: none;"></path>
</svg>
