<?xml version="1.0"?>
<!-- Created by MetaPost 2.00 on 2019.06.02:1722 -->
<svg version="1.1" xmlns="http://www.w3.org/2000/svg" xmlns:xlink="http://www.w3.org/1999/xlink" width="611.998901" height="206.999634" viewBox="0 0 611.998901 206.999634">
<!-- Original BoundingBox: -8.999985 -8.999985 602.998917 197.999649 -->
  <path d="M-0.999985 188.000000C-0.999649 192.773788,0.896881 197.351959,4.272461 200.727539C7.648041 204.103119,12.226212 205.999649,17.000000 205.999985L592.998932 205.999985C597.772720 205.999649,602.350891 204.103119,605.726471 200.727539C609.102051 197.351959,610.998581 192.773788,610.998917 188.000000L610.998917 17.000336C610.998581 12.226547,609.102051 7.648376,605.726471 4.272797C602.350891 0.897217,597.772720 -0.999313,592.998932 -0.999649L17.000000 -0.999649C12.226212 -0.999313,7.648041 0.897217,4.272461 4.272797C0.896881 7.648376,-0.999649 12.226547,-0.999985 17.000336Z" style="fill: rgb(0.000000%,0.000000%,0.000000%);stroke: none;"></path>
  <path d="M8.000000 179.000015C8.000336 183.773804,9.896866 188.351974,13.272446 191.727554C16.648026 195.103134,21.226196 196.999664,25.999985 197.000000L583.998947 197.000000C588.772736 196.999664,593.350906 195.103134,596.726486 191.727554C600.102066 188.351974,601.998596 183.773804,601.998932 179.000015L601.998932 26.000320C601.998596 21.226532,600.102066 16.648361,596.726486 13.272781C593.350906 9.897202,588.772736 8.000671,583.998947 8.000336L25.999985 8.000336C21.226196 8.000671,16.648026 9.897202,13.272446 13.272781C9.896866 16.648361,8.000336 21.226532,8.000000 26.000320Z" style="fill: rgb(100.000000%,100.000000%,100.000000%);stroke: none;"></path>
  <path d="M16.985794 174.514236C16.986053 178.094574,18.408447 181.528198,20.940125 184.059875C23.471802 186.591553,26.905426 188.013947,30.485764 188.014206L579.513107 188.014206C583.093445 188.013947,586.527069 186.591553,589.058746 184.059875C591.590424 181.528198,593.012817 178.094574,593.013077 174.514236L593.013077 30.486160C593.012817 26.905823,591.590424 23.472198,589.058746 20.940521C586.527069 18.408844,583.093445 16.986450,579.513107 16.986191L30.485764 16.986191C26.905426 16.986450,23.471802 18.408844,20.940125 20.940521C18.408447 23.472198,16.986053 26.905823,16.985794 30.486160Z" style="fill: rgb(50.000000%,50.000000%,50.000000%);stroke: none;"></path>
</svg>
